<?xml version="1.0" encoding="UTF-8"?><svg id="Camada_2" xmlns="http://www.w3.org/2000/svg" viewBox="0 0 16.05 15.72"><defs><style>.cls-1{fill:#fff;}</style></defs><g id="Camada_1-2"><g><path class="cls-1" d="M11.48,15.72H4.57c-2.52,0-4.57-2.01-4.57-4.47V4.47C0,2.01,2.05,0,4.57,0h6.91c2.52,0,4.57,2.01,4.57,4.47v6.77c0,2.47-2.05,4.47-4.57,4.47ZM4.57,1.35c-1.76,0-3.19,1.4-3.19,3.13v6.77c0,1.72,1.43,3.13,3.19,3.13h6.91c1.76,0,3.19-1.4,3.19-3.13V4.47c0-1.72-1.43-3.13-3.19-3.13H4.57Z"/><path class="cls-1" d="M8.03,11.88c-2.27,0-4.11-1.81-4.11-4.02s1.84-4.02,4.11-4.02,4.11,1.81,4.11,4.02-1.84,4.02-4.11,4.02Zm0-6.7c-1.51,0-2.73,1.2-2.73,2.68s1.23,2.68,2.73,2.68,2.73-1.2,2.73-2.68-1.23-2.68-2.73-2.68Z"/><path class="cls-1" d="M13.3,3.6c0,.53-.44,.97-.99,.97s-.99-.43-.99-.97,.44-.97,.99-.97,.99,.43,.99,.97Z"/></g></g></svg>