<?xml version="1.0" encoding="utf-8"?>
<!-- Generator: Adobe Illustrator 26.0.0, SVG Export Plug-In . SVG Version: 6.00 Build 0)  -->
<svg version="1.1" id="Isolation_Mode" xmlns="http://www.w3.org/2000/svg" xmlns:xlink="http://www.w3.org/1999/xlink" x="0px"
	 y="0px" viewBox="0 0 512 512" style="enable-background:new 0 0 512 512;" xml:space="preserve">
<style type="text/css">
	.st0{fill:#FFFFFF;}
</style>
<path class="st0" d="M256,0.4C137.5,0.6,41.4,96.7,41.3,215.2c0,112.5,174.2,263,194.1,279.8l20.6,17.4l20.6-17.4
	c19.9-16.8,194.1-167.3,194.1-279.8C470.7,96.6,374.6,0.5,256,0.4z M256,428c-65.4-59.6-150.8-156.3-150.8-212.8
	c0-83.3,67.4-150.8,150.7-150.8c83.3,0,150.8,67.4,150.8,150.7c0,0,0,0.1,0,0.1C406.8,271.6,321.4,368.4,256,428z"/>
<circle class="st0" cx="256" cy="213.4" r="63.9"/>
</svg>
