<?xml version="1.0" encoding="utf-8"?>
<!-- Generator: Adobe Illustrator 26.0.0, SVG Export Plug-In . SVG Version: 6.00 Build 0)  -->
<svg version="1.1" id="Capa_1" xmlns="http://www.w3.org/2000/svg" xmlns:xlink="http://www.w3.org/1999/xlink" x="0px" y="0px"
	 viewBox="0 0 512 512" style="enable-background:new 0 0 512 512;" xml:space="preserve">
<style type="text/css">
	.st0{fill:#FFFFFF;}
</style>
<g id="Camada_1-2">
	<path class="st0" d="M256,506.7c-44.7,0-88.7-11.6-127.7-33.6l-99.7,33.6l20.6-103.5C17,360,0,309.5,0,256
		C0,117.7,114.8,5.3,256,5.3S512,117.7,512,256S397.2,506.7,256,506.7z M133,432l7.7,4.8c34.7,21.3,74.6,32.6,115.3,32.5
		c120.1,0,218-95.8,218-213.3S376.1,42.7,256,42.7S38,138.3,38,256c0,47.8,16,93.2,46.3,131.1l5.3,6.7l-11.1,56.5l54.3-18.3H133z"/>
	<path class="st0" d="M126.8,159.7c0,0,15.1-25.7,27.2-27.2s27.9-1.6,32.2,6.3s23.3,53.5,23.3,53.5c1.8,5.1,1.2,10.8-1.7,15.4
		c-5,7.5-16.3,18.7-16.3,18.7s-6.2,7.9,0,16.1c6.2,8.4,15.9,23.6,36,43.2c20,19.7,58.4,33.6,58.4,33.6s5.5,0.7,9.1-2.7
		c3.4-3.4,22.5-26.7,22.5-26.7c4.1-4.6,10.7-6,16.3-3.3c10.1,4.5,54,25.9,54,25.9s5.1,1.9,5.1,9.4s-3.1,26.2-9.6,32.4
		c-6.3,6.3-25.2,25.7-53.3,25.7s-95.3-22.5-131.1-57.4s-67.5-70.6-75-102.8c-7.5-32.4-6.5-46.9,2.7-60.3L126.8,159.7z"/>
</g>
</svg>
