<?xml version="1.0" encoding="UTF-8"?><svg id="Camada_2" xmlns="http://www.w3.org/2000/svg" viewBox="0 0 124.09 36.78"><defs><style>.cls-1{fill:#fff;}</style></defs><g id="Camada_1-2"><path class="cls-1" d="M117.81,18.22c-.03-.33-.21-.55-.45-.65-.1-.05-.22-.07-.34-.07-.22,0-.45,.07-.69,.21-.31,.17-.65,.45-.96,.8-.57,.67-1.04,1.58-1.04,2.53,0,.5,.12,1.01,.45,1.49,.38,.58,.99,.8,1.73,.8,2.81,0,7.41-3.32,7.45-3.34,.09-.07,.14-.15,.14-.24,0-.21-.19-.41-.41-.41-.07,0-.14,.02-.21,.07-.02,.02-4.74,3.58-7.11,3.58-.48,0-.86-.15-1.08-.5-.21-.31-.27-.79-.27-1.2,0-.12,.02-.24,.02-.34,.48-.19,2.79-1.11,2.79-2.55,0-.07-.02-.12-.02-.19m-2.53,1.85c.79-1.03,1.11-1.66,1.46-1.71,.03,0,.05,.02,.05,.05,0,.15-.41,.72-1.51,1.66m-9.35-2.52c.02-.07,.02-.12,.02-.17,0-.45-.43-.77-.84-.77-.26,0-.51,.14-.62,.45,0,.02-1.59,3.08-1.59,5.17,0,.77,.22,1.4,.8,1.71,.15,.09,.33,.12,.5,.12,1.35,0,3.07-2.26,3.97-3.84v.14c0,1.01,.19,2.05,.92,2.45,.15,.09,.34,.12,.55,.12,1.9,0,5.68-3.01,5.68-3.03,.02-.07,.03-.12,.03-.17,0-.22-.15-.41-.36-.41-.07,0-.15,.03-.24,.09-.02,.02-3.8,3.08-5.17,3.08-.1,0-.21-.02-.27-.05-.39-.21-.51-.84-.51-1.56,0-1.15,.31-2.45,.31-2.47,0-.45-.36-.84-.67-.84-.17,0-.34,.14-.39,.48-.05,.96-2.74,4.76-3.77,5.03-.03,0-.09,.02-.12,.02-.26,0-.38-.22-.38-.58,0-.98,.82-2.98,2.14-4.97m-8.24,13.72c-.24,1.87-.84,4.85-1.22,4.85h-.03s-.02-.03-.02-.09c0-.48,.67-2.81,1.27-4.76m.19-13.7c-.6,.65-1.15,1.64-1.7,2.35-.99,1.27-1.75,2.17-2.23,2.17-.03,0-.07,0-.1-.02-.03-.03-.05-.09-.05-.17,0-.82,1.92-4.11,3.32-4.4,.27-.07,.41-.1,.51-.1s.14,.05,.24,.17m.14,1.13v.02c0,.21,.15,.29,.33,.29,.14,0,.29-.05,.36-.15,0,0,.07-.29,.07-.67,0-.15-.02-.34-.05-.51,.7-.72,1.13-1.13,1.73-1.13,.1,0,.21,.02,.31,.03h.09c.29,0,.41,.31,.41,.86,0,2.95-3.56,12.36-4.02,13.36-.69,2.24-1.37,4.23-1.37,5.26,0,.34,.09,.56,.26,.67,.1,.05,.22,.07,.33,.07,1.32,0,1.9-3.99,1.9-6.32,0-.38-.02-.7-.05-.98,.55-1.82,3.51-8.54,3.78-10.09,.12-.65,.19-1.25,.19-1.78,0-1.04-.29-1.75-1.01-1.88-.12-.02-.22-.03-.34-.03-.84,0-1.68,.53-2.48,1.3-.26-.29-.55-.65-1.22-.65-.14,0-.31,.02-.5,.05-1.61,.22-3.97,3.22-3.97,5.1,0,.26,.05,.51,.15,.72,.12,.24,.33,.41,.62,.5,.09,.03,.17,.03,.26,.03,.86,0,1.83-1.27,2.95-2.69,.43-.56,.89-1.15,1.35-1.68-.02,.19-.05,.31-.05,.31m-13.18-4.13c-.05-.02-.09-.02-.14-.02-.27,0-.57,.24-.7,.6-.05,.12-.07,.24-.07,.36,0,.29,.14,.53,.36,.62,.05,.02,.1,.02,.15,.02,.27,0,.57-.24,.69-.6,.05-.12,.07-.24,.07-.36,0-.29-.14-.53-.36-.62m-.62,4.01c.02-.05,.02-.1,.02-.15,0-.36-.36-.62-.72-.62-.26,0-.5,.12-.63,.41-.31,.53-.89,1.99-.89,3.18,0,.65,.17,1.23,.65,1.54,.15,.19,.48,.26,.91,.26,2.86,0,10.75-3.44,10.77-3.44,.03-.03,.03-.07,.03-.1,0-.17-.22-.41-.53-.41-.12,0-.24,.03-.38,.14,0,0-7.59,3.27-9.59,3.27-.17,0-.31-.02-.39-.09-.24-.15-.34-.45-.34-.8,0-1.2,1.1-3.18,1.1-3.18m-11.54-.99v-.03c0-.39-.31-.62-.62-.62-.26,0-.51,.15-.6,.5l-1.66,6.64v.07c0,.22,.21,.33,.45,.33,.27,0,.6-.12,.7-.34,.03-.36,2.55-3.89,3.42-3.89,.1,0,.19,.07,.24,.22,.79,1.75,1.88,2.35,3.05,2.35,1.87,0,3.92-1.54,5.29-2.62,.1-.05,.15-.14,.15-.22,0-.15-.15-.33-.33-.33-.07,0-.15,.02-.22,.1-1.83,1.34-3.44,2.48-4.79,2.48-1.04,0-1.95-.67-2.71-2.4-.22-.48-.51-.68-.86-.68-.75,0-1.73,1.08-2.69,2.33l1.16-3.89Zm-10.5-3.01c-.05-.02-.09-.02-.14-.02-.27,0-.56,.24-.7,.6-.05,.12-.07,.24-.07,.36,0,.29,.14,.53,.36,.62,.05,.02,.1,.02,.15,.02,.27,0,.57-.24,.69-.6,.05-.12,.07-.24,.07-.36,0-.29-.14-.53-.36-.62m-.62,4.01c.02-.05,.02-.1,.02-.15,0-.36-.36-.62-.72-.62-.26,0-.5,.12-.63,.41-.31,.53-.89,1.99-.89,3.18,0,.65,.17,1.23,.65,1.54,.15,.19,.48,.26,.91,.26,2.86,0,10.75-3.44,10.77-3.44,.03-.03,.03-.07,.03-.1,0-.17-.22-.41-.53-.41-.12,0-.24,.03-.38,.14,0,0-7.59,3.27-9.59,3.27-.17,0-.31-.02-.39-.09-.24-.15-.34-.45-.34-.8,0-1.2,1.1-3.18,1.1-3.18m-9.9,1.16c2.07-1.39,6.95-8.61,6.95-11.7,0-.26-.03-.48-.1-.67-.14-.36-.36-.55-.65-.57h-.02c-.39,0-.87,.34-1.4,.94-.46,.55-1.01,1.34-1.56,2.28-2.28,3.13-5.6,13.48-5.6,17.96,0,.68,.07,1.25,.24,1.61,.27,.55,.65,.79,1.11,.79,3.1,0,9.86-10.57,9.88-10.6v-.02c0-.24-.14-.38-.33-.38-.15,0-.34,.1-.51,.36-.02,.03-6.47,10.39-8.99,10.39-.31,0-.57-.17-.74-.53-.12-.26-.19-.67-.19-1.2,0-1.66,.63-4.62,1.9-8.68m.53-1.54c.8-2.26,2.17-6.04,3.24-7.86,.53-.91,1.04-1.66,1.49-2.17,.39-.45,.7-.72,.87-.72h.02s.07,.05,.12,.15c.02,.05,.03,.12,.03,.21,0,1.82-4.71,9.42-5.77,10.39m-8.65-3.15c-.07,.17-.1,.33-.1,.46,0,.45,.39,.67,.82,.67,.5,0,1.04-.27,1.16-.72,1.23-3.05,2.04-6.8,2.04-9.74s-.77-4.97-2.64-4.97c-1.34,0-3.27,1.1-5.89,3.78-2,2.04-7.77,8.27-10.74,16.27-.99,2.71-1.63,5.38-1.63,7.77,0,1.9,.39,3.61,1.32,5.05,.77,1.2,1.87,1.71,3.17,1.71,7.07,0,20.15-15.03,20.21-15.09,.02-.07,.02-.12,.02-.17,0-.24-.12-.41-.33-.41-.14,0-.31,.09-.5,.29-.31,.45-12.93,14.73-19.47,14.73-1.16,0-2.14-.45-2.81-1.49-.79-1.22-1.11-2.67-1.11-4.28,0-2.38,.72-5.1,1.75-7.89,2.93-7.91,9.13-14.14,11.1-16.16,2.26-2.31,3.85-3.24,4.93-3.24,1.46,0,2,1.66,2,3.82,0,3.99-1.85,9.67-3.1,9.67-.07,0-.14-.03-.21-.07m-28.92,3.17c-.03-.33-.21-.55-.45-.65-.1-.05-.22-.07-.34-.07-.22,0-.45,.07-.68,.21-.31,.17-.65,.45-.96,.8-.57,.67-1.04,1.58-1.04,2.53,0,.5,.12,1.01,.45,1.49,.38,.58,.99,.8,1.73,.8,2.81,0,7.41-3.32,7.45-3.34,.09-.07,.14-.15,.14-.24,0-.21-.19-.41-.41-.41-.07,0-.14,.02-.21,.07-.02,.02-4.74,3.58-7.11,3.58-.48,0-.86-.15-1.08-.5-.21-.31-.27-.79-.27-1.2,0-.12,.02-.24,.02-.34,.48-.19,2.79-1.11,2.79-2.55,0-.07-.02-.12-.02-.19m-2.53,1.85c.79-1.03,1.11-1.66,1.46-1.71,.03,0,.05,.02,.05,.05,0,.15-.41,.72-1.51,1.66M8.2,3.01c.03,.34,.38,.57,.67,.57,.09,0,.17-.02,.24-.07l.19-.22-.31,1.18C6.97,13.53,2.19,32.65,.84,32.65h-.02c-.53,.26-.82,.65-.82,.91,0,.19,.14,.33,.43,.33,.21,0,.5-.07,.86-.22,.34-.15,.72-.63,1.06-.89,2.31-2.23,10.6-4.01,16.78-4.13h.1c1.22,0,1.8,.31,2.76,.63,.03,.02,.09,.02,.12,.02,.27,0,.51-.27,.51-.57,0-.19-.1-.38-.38-.5-.51-.22-1.32-.31-2.31-.31-5.26,0-15.82,2.67-18,4.3-.07,.05-.14,.1-.21,.14,2-4.04,7.36-20.03,7.93-27.72,.17-2.28,1.1-3.54,1.18-3.78,.07-.1,.1-.21,.1-.33,0-.27-.21-.53-.48-.53-.17,0-.36,.12-.53,.41-.33,1.08-1.42,2.4-1.73,2.6"/></g></svg>