<?xml version="1.0" encoding="UTF-8"?><svg id="Camada_2" xmlns="http://www.w3.org/2000/svg" viewBox="0 0 13.55 29.17"><defs><style>.cls-1{fill:#fff;fill-rule:evenodd;}</style></defs><g id="Camada_1-2"><path class="cls-1" d="M2.99,14.7v14.1c0,.2,.16,.37,.37,.37h5.24c.2,0,.37-.16,.37-.37V14.47h3.8c.19,0,.35-.15,.37-.34l.37-4.32c.02-.21-.15-.4-.37-.4h-4.16v-3.06c0-.72,.58-1.3,1.3-1.3h2.93c.2,0,.37-.16,.37-.37V.37c0-.2-.16-.37-.37-.37h-4.94C5.34,0,2.99,2.35,2.99,5.25v4.16H.37c-.2,0-.37,.16-.37,.37v4.32c0,.2,.16,.37,.37,.37H2.99v.23Z"/></g></svg>