<?xml version="1.0" encoding="UTF-8"?><svg id="Camada_2" xmlns="http://www.w3.org/2000/svg" viewBox="0 0 50 50"><defs><style>.cls-1{fill:#fff;}.cls-2{fill:#cfae85;}</style></defs><g id="Camada_1-2"><circle class="cls-2" cx="25" cy="25" r="25"/><path class="cls-1" d="M46.35,24.93c-.01-.12-.08-.21-.17-.25-.04-.02-.09-.03-.13-.03-.09,0-.17,.03-.26,.08-.12,.07-.25,.17-.37,.31-.22,.26-.4,.6-.4,.97,0,.19,.05,.39,.17,.57,.14,.22,.38,.31,.66,.31,1.08,0,2.84-1.27,2.85-1.28,.03-.03,.05-.06,.05-.09,0-.08-.07-.16-.16-.16-.03,0-.05,0-.08,.03,0,0-1.82,1.37-2.72,1.37-.18,0-.33-.06-.41-.19-.08-.12-.1-.3-.1-.46,0-.05,0-.09,0-.13,.18-.07,1.07-.43,1.07-.98,0-.03,0-.05,0-.07m-.97,.71c.3-.39,.43-.64,.56-.66,.01,0,.02,0,.02,.02,0,.06-.16,.28-.58,.64m-3.58-.96s0-.05,0-.07c0-.17-.16-.3-.32-.3-.1,0-.2,.05-.24,.17,0,0-.61,1.18-.61,1.98,0,.3,.09,.54,.31,.66,.06,.03,.12,.05,.19,.05,.52,0,1.17-.87,1.52-1.47v.05c0,.39,.07,.79,.35,.94,.06,.03,.13,.05,.21,.05,.73,0,2.18-1.15,2.18-1.16,0-.03,.01-.05,.01-.07,0-.09-.06-.16-.14-.16-.03,0-.06,.01-.09,.03,0,0-1.46,1.18-1.98,1.18-.04,0-.08,0-.1-.02-.15-.08-.2-.32-.2-.6,0-.44,.12-.94,.12-.94,0-.17-.14-.32-.26-.32-.07,0-.13,.05-.15,.18-.02,.37-1.05,1.82-1.44,1.93-.01,0-.03,0-.05,0-.1,0-.14-.09-.14-.22,0-.37,.31-1.14,.82-1.9m-3.15,5.25c-.09,.71-.32,1.86-.47,1.86h-.01s0-.01,0-.03c0-.18,.26-1.08,.49-1.82m.07-5.25c-.23,.25-.44,.63-.65,.9-.38,.49-.67,.83-.85,.83-.01,0-.03,0-.04,0-.01-.01-.02-.03-.02-.07,0-.31,.73-1.57,1.27-1.69,.1-.03,.16-.04,.2-.04s.05,.02,.09,.07m.05,.43h0c0,.09,.06,.12,.12,.12,.05,0,.11-.02,.14-.06,0,0,.03-.11,.03-.26,0-.06,0-.13-.02-.2,.27-.28,.43-.43,.66-.43,.04,0,.08,0,.12,.01h.03c.11,0,.16,.12,.16,.33,0,1.13-1.36,4.73-1.54,5.11-.26,.86-.52,1.62-.52,2.01,0,.13,.03,.22,.1,.26,.04,.02,.09,.03,.12,.03,.5,0,.73-1.53,.73-2.42,0-.14,0-.27-.02-.37,.21-.7,1.34-3.27,1.45-3.86,.05-.25,.07-.48,.07-.68,0-.4-.11-.67-.39-.72-.05,0-.09-.01-.13-.01-.32,0-.64,.2-.95,.5-.1-.11-.21-.25-.47-.25-.05,0-.12,0-.19,.02-.62,.09-1.52,1.23-1.52,1.95,0,.1,.02,.2,.06,.28,.05,.09,.12,.16,.24,.19,.03,.01,.07,.01,.1,.01,.33,0,.7-.49,1.13-1.03,.16-.22,.34-.44,.52-.64,0,.07-.02,.12-.02,.12m-5.05-1.58s-.03,0-.05,0c-.1,0-.22,.09-.27,.23-.02,.05-.03,.09-.03,.14,0,.11,.05,.2,.14,.24,.02,0,.04,0,.06,0,.1,0,.22-.09,.26-.23,.02-.05,.03-.09,.03-.14,0-.11-.05-.2-.14-.24m-.24,1.53s0-.04,0-.06c0-.14-.14-.24-.28-.24-.1,0-.19,.05-.24,.16-.12,.2-.34,.76-.34,1.22,0,.25,.07,.47,.25,.59,.06,.07,.18,.1,.35,.1,1.1,0,4.12-1.32,4.12-1.32,.01-.01,.01-.03,.01-.04,0-.07-.09-.16-.2-.16-.05,0-.09,.01-.14,.05,0,0-2.9,1.25-3.67,1.25-.07,0-.12,0-.15-.03-.09-.06-.13-.17-.13-.31,0-.46,.42-1.22,.42-1.22m-4.42-.38h0c0-.16-.12-.25-.24-.25-.1,0-.2,.06-.23,.19l-.64,2.54v.03c0,.09,.08,.12,.17,.12,.1,0,.23-.05,.27-.13,.01-.14,.98-1.49,1.31-1.49,.04,0,.07,.03,.09,.09,.3,.67,.72,.9,1.17,.9,.71,0,1.5-.59,2.03-1,.04-.02,.06-.05,.06-.09,0-.06-.06-.12-.12-.12-.03,0-.06,0-.09,.04-.7,.51-1.32,.95-1.84,.95-.4,0-.75-.26-1.04-.92-.09-.18-.2-.26-.33-.26-.29,0-.66,.41-1.03,.89l.45-1.49Zm-4.02-1.15s-.03,0-.05,0c-.1,0-.22,.09-.27,.23-.02,.05-.03,.09-.03,.14,0,.11,.05,.2,.14,.24,.02,0,.04,0,.06,0,.1,0,.22-.09,.26-.23,.02-.05,.03-.09,.03-.14,0-.11-.05-.2-.14-.24m-.24,1.53s0-.04,0-.06c0-.14-.14-.24-.28-.24-.1,0-.19,.05-.24,.16-.12,.2-.34,.76-.34,1.22,0,.25,.07,.47,.25,.59,.06,.07,.18,.1,.35,.1,1.1,0,4.12-1.32,4.12-1.32,.01-.01,.01-.03,.01-.04,0-.07-.09-.16-.2-.16-.05,0-.09,.01-.14,.05,0,0-2.9,1.25-3.67,1.25-.07,0-.12,0-.15-.03-.09-.06-.13-.17-.13-.31,0-.46,.42-1.22,.42-1.22m-3.79,.45c.79-.53,2.66-3.3,2.66-4.48,0-.1-.01-.18-.04-.26-.05-.14-.14-.21-.25-.22h0c-.15,0-.33,.13-.54,.36-.18,.21-.39,.51-.6,.87-.87,1.2-2.14,5.16-2.14,6.88,0,.26,.03,.48,.09,.62,.1,.21,.25,.3,.43,.3,1.19,0,3.78-4.05,3.78-4.06h0c0-.1-.05-.15-.12-.15-.06,0-.13,.04-.2,.14,0,.01-2.48,3.98-3.44,3.98-.12,0-.22-.07-.28-.2-.05-.1-.07-.26-.07-.46,0-.64,.24-1.77,.73-3.32m.2-.59c.31-.87,.83-2.31,1.24-3.01,.2-.35,.4-.64,.57-.83,.15-.17,.27-.28,.33-.28h0s.03,.02,.05,.06c0,.02,.01,.05,.01,.08,0,.7-1.8,3.61-2.21,3.98m-3.31-1.21c-.03,.07-.04,.12-.04,.18,0,.17,.15,.26,.31,.26,.19,0,.4-.1,.45-.28,.47-1.17,.78-2.6,.78-3.73s-.3-1.9-1.01-1.9c-.51,0-1.25,.42-2.26,1.45-.77,.78-2.98,3.17-4.11,6.23-.38,1.04-.62,2.06-.62,2.98,0,.73,.15,1.38,.5,1.93,.3,.46,.71,.66,1.21,.66,2.71,0,7.72-5.76,7.74-5.78,0-.03,0-.05,0-.07,0-.09-.05-.16-.12-.16-.05,0-.12,.03-.19,.11-.12,.17-4.95,5.64-7.46,5.64-.45,0-.82-.17-1.08-.57-.3-.47-.43-1.02-.43-1.64,0-.91,.28-1.95,.67-3.02,1.12-3.03,3.5-5.42,4.25-6.19,.87-.89,1.48-1.24,1.89-1.24,.56,0,.77,.64,.77,1.46,0,1.53-.71,3.7-1.19,3.7-.03,0-.05-.01-.08-.03m-11.08,1.21c-.01-.12-.08-.21-.17-.25-.04-.02-.09-.03-.13-.03-.09,0-.17,.03-.26,.08-.12,.07-.25,.17-.37,.31-.22,.26-.4,.6-.4,.97,0,.19,.05,.39,.17,.57,.14,.22,.38,.31,.66,.31,1.08,0,2.84-1.27,2.85-1.28,.03-.03,.05-.06,.05-.09,0-.08-.07-.16-.16-.16-.03,0-.05,0-.08,.03,0,0-1.82,1.37-2.72,1.37-.18,0-.33-.06-.41-.19-.08-.12-.1-.3-.1-.46,0-.05,0-.09,0-.13,.18-.07,1.07-.43,1.07-.98,0-.03,0-.05,0-.07m-.97,.71c.3-.39,.43-.64,.56-.66,.01,0,.02,0,.02,.02,0,.06-.16,.28-.58,.64m-1.49-6.53c.01,.13,.14,.22,.26,.22,.03,0,.07,0,.09-.03l.07-.09-.12,.45c-.77,3.47-2.6,10.79-3.12,10.79h0c-.2,.1-.31,.25-.31,.35,0,.07,.05,.12,.16,.12,.08,0,.19-.03,.33-.09,.13-.06,.28-.24,.41-.34,.89-.85,4.06-1.53,6.43-1.58h.04c.47,0,.69,.12,1.06,.24,.01,0,.03,0,.05,0,.1,0,.2-.1,.2-.22,0-.07-.04-.14-.14-.19-.2-.09-.5-.12-.89-.12-2.01,0-6.06,1.02-6.89,1.65-.03,.02-.05,.04-.08,.05,.77-1.55,2.82-7.67,3.04-10.62,.07-.87,.42-1.36,.45-1.45,.03-.04,.04-.08,.04-.12,0-.1-.08-.2-.18-.2-.07,0-.14,.05-.2,.16-.12,.41-.54,.92-.66,1"/></g></svg>