<?xml version="1.0" encoding="UTF-8"?><svg id="Camada_2" xmlns="http://www.w3.org/2000/svg" viewBox="0 0 29.79 29.17"><defs><style>.cls-1{fill:#fff;}</style></defs><g id="Camada_1-2"><g><path class="cls-1" d="M21.31,29.17H8.48C3.8,29.17,0,25.45,0,20.87V8.3C0,3.72,3.8,0,8.48,0h12.83c4.68,0,8.48,3.72,8.48,8.3v12.57c0,4.58-3.8,8.3-8.48,8.3ZM8.48,2.5c-3.27,0-5.93,2.6-5.93,5.8v12.57c0,3.2,2.66,5.8,5.93,5.8h12.83c3.27,0,5.93-2.6,5.93-5.8V8.3c0-3.2-2.66-5.8-5.93-5.8H8.48Z"/><path class="cls-1" d="M14.9,22.05c-4.21,0-7.63-3.35-7.63-7.47s3.42-7.47,7.63-7.47,7.63,3.35,7.63,7.47-3.42,7.47-7.63,7.47Zm0-12.44c-2.8,0-5.07,2.23-5.07,4.97s2.28,4.97,5.07,4.97,5.07-2.23,5.07-4.97-2.28-4.97-5.07-4.97Z"/><path class="cls-1" d="M24.68,6.69c0,.99-.82,1.79-1.83,1.79s-1.83-.8-1.83-1.79,.82-1.8,1.83-1.8,1.83,.8,1.83,1.8Z"/></g></g></svg>