<?xml version="1.0" encoding="UTF-8"?><svg id="Camada_2" xmlns="http://www.w3.org/2000/svg" viewBox="0 0 337.67 75.09"><defs><style>.cls-1{opacity:.1;}.cls-2{fill:#1e1e1e;}</style></defs><g id="Camada_1-2"><g class="cls-1"><path class="cls-2" d="M14.18,12.42c.79-.72,1.69-1.08,2.52-1.08,.76,0,1.48,.29,2.02,.86,6.44,7.06,3.64,49.17,11.59,50.14,.11,0,.22,.04,.32,.04,6.91,0,16.38-25.41,18.32-31.24,1.08-3.35,4.75-15.66,4.75-23.47,0-3.1-.61-5.51-2.16-6.3-.25-.14-.36-.36-.36-.58,0-.4,.32-.79,.72-.79,.11,0,.22,0,.32,.07,2.52,1.3,3.38,4.75,3.38,8.93,0,8.24-3.38,19.4-4.72,23.43-2.09,6.41-13.07,31.39-20.41,31.39-.11,0-.25-.04-.36-.04-10.33-1.26-7.56-44.49-13.03-50.5-.25-.25-.5-.4-.79-.4-.32,0-.72,.22-1.15,.61C7.85,20.16,3.35,43.91,1.94,52.48c-.07,.22-.07,.43-.07,.61,0,1.22,.76,1.58,.76,2.48,0,.11-.04,.25-.04,.4-.22,.5-.65,.72-1.12,.72-.61,0-1.3-.43-1.48-1.3,.04-.07,4.86-34.45,14.18-42.98Z"/><path class="cls-2" d="M59.4,35.13c-.07-.18-.07-.32-.07-.47,0-.29,.11-.5,.32-.68,.18-.14,.36-.22,.58-.22,.11,0,.22,.04,.36,.07,.61,.25,1.04,.83,1.3,1.8,.83,.9,2.02,1.66,4.43,1.84,1.26,.11,2.41,.14,3.42,.14,3.78,0,5.76-.58,5.76-.61h.18c.4,0,.61,.32,.61,.68s-.18,.72-.5,.83c0,0-1.44,.29-4.39,.29-1.3,0-2.88-.07-4.75-.22-1.98-.18-3.24-.5-4.36-1.01-.04,3.1-1.19,7.96-3.89,9.86-.5,.32-1.12,.54-1.69,.54-.29,0-.58-.04-.79-.14-1.04-.43-1.4-1.48-1.4-2.7,0-1.66,.65-3.6,1.08-4.57,.58-1.3,2.52-4.43,3.89-5.29-.04-.04-.07-.11-.07-.14Zm-2.56,6.19c-.22,.5-.86,2.48-.86,3.85,0,.61,.11,1.08,.5,1.22,.07,.04,.14,.04,.22,.04,1.69,0,3.78-7.74,3.78-9.72v-.22c-.11-.07-.18-.14-.25-.22-1.33,1.04-2.74,3.53-3.38,5.04Z"/><path class="cls-2" d="M81.65,32.79c0-.22-.07-.36-.29-.36-.18,0-.43,.07-.76,.25-.72,.36-1.98,1.48-3.1,2.95-.76,1.01-1.04,1.94-1.04,2.84,0,2.34,2.12,4.46,3.85,7.27,3.31-2.38,6.16-4.14,9.83-5.94,2.09-1.04,4.82-2.38,7.31-3.28,.83,.07,1.26,.76,1.26,1.4,0,.4-.18,.79-.54,1.01-2.48,.29-4.68,1.26-6.73,2.27-3.71,1.8-7.16,3.35-10.51,5.79,.65,1.19,.94,2.59,.94,4,0,5.4-4.07,11.52-8.89,11.52-.47,0-.94-.07-1.4-.18-1.44-.32-2.02-1.73-2.02-3.17,0-.54,.11-1.08,.25-1.58,.76-2.41,3.78-6.59,9.86-11.16-1.37-2.3-5.08-5.22-5.08-8.6,0-1.01,.32-2.05,1.15-3.17,1.33-1.8,3.42-2.88,4.21-3.28,.83-.36,1.48-.5,1.98-.5,.97,0,1.4,.54,1.51,1.4,.04,.18,.04,.36,.04,.58,0,2.2-1.19,4.97-1.19,5-.29,.4-.76,.54-1.22,.54-.76,0-1.55-.47-1.55-1.26,0-.11,0-.22,.04-.32,0-.04,2.09-3.02,2.09-4.03Zm-10.48,25.23c-.11,.32-.18,.72-.18,1.08,0,.58,.22,1.12,.9,1.3,.32,.11,.65,.14,1.01,.14,3.89,0,7.77-5.9,7.77-10.44,0-.94-.14-1.8-.5-2.56-5.44,4.18-8.31,8.35-9,10.47Z"/><path class="cls-2" d="M103.89,32.79c0-.22-.07-.36-.29-.36-.18,0-.43,.07-.76,.25-.72,.36-1.98,1.48-3.1,2.95-.76,1.01-1.04,1.94-1.04,2.84,0,2.34,2.12,4.46,3.85,7.27,3.31-2.38,6.16-4.14,9.83-5.94,2.09-1.04,4.82-2.38,7.31-3.28,.83,.07,1.26,.76,1.26,1.4,0,.4-.18,.79-.54,1.01-2.48,.29-4.68,1.26-6.73,2.27-3.71,1.8-7.16,3.35-10.51,5.79,.65,1.19,.94,2.59,.94,4,0,5.4-4.07,11.52-8.89,11.52-.47,0-.94-.07-1.4-.18-1.44-.32-2.02-1.73-2.02-3.17,0-.54,.11-1.08,.25-1.58,.76-2.41,3.78-6.59,9.86-11.16-1.37-2.3-5.08-5.22-5.08-8.6,0-1.01,.32-2.05,1.15-3.17,1.33-1.8,3.42-2.88,4.21-3.28,.83-.36,1.48-.5,1.98-.5,.97,0,1.4,.54,1.51,1.4,.04,.18,.04,.36,.04,.58,0,2.2-1.19,4.97-1.19,5-.29,.4-.76,.54-1.22,.54-.76,0-1.55-.47-1.55-1.26,0-.11,0-.22,.04-.32,0-.04,2.09-3.02,2.09-4.03Zm-10.48,25.23c-.11,.32-.18,.72-.18,1.08,0,.58,.22,1.12,.9,1.3,.32,.11,.65,.14,1.01,.14,3.89,0,7.77-5.9,7.77-10.44,0-.94-.14-1.8-.5-2.56-5.44,4.18-8.31,8.35-9,10.47Z"/><path class="cls-2" d="M125.31,39.96c-2.84,2.7-6.08,5.72-7.63,5.72-.04,0-.11-.04-.18-.04-.4-.07-.68-.29-.94-.58-.29-.36-.4-.79-.4-1.3,0-.18,0-.36,.04-.54,.07-.58,.29-1.3,.65-2.02,1.04-2.3,3.28-5,6.05-5.83,.72-.22,1.37-.29,1.94-.29,1.12,0,1.94,.36,2.48,.9,1.08-.9,2.34-1.8,3.02-1.8,.11,0,.22,.04,.29,.07,.47,.07,.72,.54,.72,1.33,0,.86-.29,2.09-.9,3.64-.4,1.08-.58,1.98-.58,2.7,0,1.87,1.19,2.56,2.95,2.56,4.57,0,13.07-4.82,14.33-6.41,.22-.43,.47-.58,.68-.58,.32,0,.54,.29,.54,.68,0,.22-.07,.43-.25,.65-.43,.61-10.08,6.26-15.69,6.26-2.3,0-3.92-.97-3.92-3.67,0-.72,.11-1.55,.36-2.56,.22-1.37,.68-2.63,.68-2.92v-.04s-.54,.5-1.37,1.3c.14,.43,.14,.86,.14,1.08v.14c-.32,.47-.76,.68-1.15,.68-.14,0-.29-.04-.43-.11l-.11-.32c-.5,.5-.72,.68-1.33,1.26Zm-.61-2.38c-1.73,0-4.75,3.92-4.75,4.75,0,.11,.07,.18,.22,.18,.68,0,2.84-1.73,5.11-4.75-.18-.14-.36-.18-.58-.18Z"/><path class="cls-2" d="M177.37,11.7c0,6.52-12.89,26.06-13.32,26.06l-.18,.5c-.9,2.74-1.62,4.93-2.3,7.45,1.01-1.51,6.91-10.08,10.29-10.08,.65,0,1.22,.32,1.62,1.08,.07,.11,.07,.29,.07,.5,0,1.19-.65,3.78-.65,5.62,0,.86,.14,1.55,.58,1.87,.18,.11,.4,.18,.68,.18,.94,0,2.41-.72,3.89-1.44,2.52-1.22,5.36-3.31,7.63-5.43,.14-.14,.29-.22,.47-.22,.36,0,.68,.32,.68,.72,0,.18-.04,.36-.18,.54-2.38,2.23-5.33,4.43-7.96,5.69-1.48,.72-2.88,1.15-4.03,1.15-.68,0-1.3-.18-1.8-.5-.97-.68-1.22-1.98-1.22-3.38,0-1.84,.47-3.82,.47-4.68v-.14c-.04-.07-.11-.11-.22-.11-1.66,0-10.98,11.23-11.7,14.04-.11,.47-.4,.68-.65,.68-.4,0-.76-.36-.76-.79v-.18c.25-3.02,.97-6.23,2.45-10.8,.04-.14,.07-.25,.07-.4,0-.36-.11-.76-.11-1.19,0-.25,.04-.5,.11-.76,.22-.65,1.19-1.55,1.37-1.98,3.17-8.42,7.42-19.37,10.48-23.76,.47-.72,1.76-2.23,2.88-2.23,.29,0,.58,.11,.83,.36,.36,.36,.5,.9,.5,1.62Zm-1.69,.07c0-.32-.07-.54-.18-.68-.14,.04-.76,.36-1.37,1.22-2.41,3.35-7.81,17.85-9.14,21.42,3.64-5.62,10.69-18.57,10.69-21.96Z"/><path class="cls-2" d="M186.15,43.09c0,.76,.22,1.37,.72,1.69,.18,.14,.47,.18,.83,.18,4.21,0,20.16-6.88,20.16-6.88,.29-.22,.54-.29,.79-.29,.65,0,1.12,.5,1.12,.86,0,.07,0,.14-.07,.22-.04,0-16.63,7.24-22.64,7.24-.9,0-1.58-.14-1.91-.54-1.01-.65-1.37-1.87-1.37-3.24,0-2.52,1.22-5.58,1.87-6.7,.29-.61,.79-.86,1.33-.86,.76,0,1.51,.54,1.51,1.3,0,.11,0,.22-.04,.32,0,0-2.3,4.18-2.3,6.7Zm4.36-13.82c0,.25-.04,.5-.14,.76-.25,.76-.86,1.26-1.44,1.26-.11,0-.22,0-.32-.04-.47-.18-.76-.68-.76-1.3,0-.25,.04-.5,.14-.76,.29-.76,.9-1.26,1.48-1.26,.11,0,.18,0,.29,.04,.47,.18,.76,.68,.76,1.3Z"/><path class="cls-2" d="M226.69,24.66c5.87-9.86,12.13-19.98,14.58-21.27,.32-.25,.68-.36,1.08-.36,.9,0,1.8,.65,1.8,1.87,0,.14,0,.29-.04,.47-1.01,5.4-3.28,12.78-5.36,17.67,2.77-.25,15.95-2.05,19.65-2.05,.43,0,.72,.04,.86,.07,.18,.22,.25,.4,.25,.61,0,1.22-2.81,2.27-2.84,2.3-.14,.07-.29,.11-.4,.11-.5,0-.94-.43-.94-.9,0-.14,.04-.25,.07-.4,0,0-8.75,.14-16.95,1.15-.11,.18-.25,.43-.4,.72-2.12,5-11.16,30.85-11.16,42.83,0,3.67,.83,6.05,2.95,6.16,.47,.04,.65,.32,.65,.61,0,.4-.29,.83-.68,.83-.07,0-.14,0-.22-.04-2.2-.86-3.06-4.25-3.06-8.96,0-12.45,6.01-34.05,8.86-41.75-2.48,.14-5.29,.43-8.14,.79-4.68,8.1-8.28,16.34-12.6,24.41,.65,1.19,.97,2.38,.97,3.56,0,2.3-1.26,4.43-4.1,5.72-.54,.32-1.55,.76-2.27,.76-.22,0-.4-.07-.54-.18-.25-.18-.36-.47-.36-.9,0-1.98,2.41-6.41,4.43-9.29-1.44-3.56-4.68-6.95-4.68-10.73v-.11c.04-3.24,2.88-6.51,5.9-6.51,.43,0,.83,.07,1.26,.22,1.26,.4,1.69,1.58,1.69,2.99,0,2.66-1.58,6.12-1.58,6.16-.11,.36-.61,.58-1.12,.58-.61,0-1.22-.29-1.22-.86v-.11s1.3-1.62,1.87-2.88c.58-1.22,.97-2.48,.97-3.49,0-.86-.25-1.51-.97-1.73-.22-.07-.47-.11-.76-.11-2.12,0-5,2.45-5.04,4.82v.14c0,4.07,2.99,6.44,4.61,9.86,1.73-3.2,7.06-12.81,12.6-22.17-6.33,.83-12.63,1.87-15.51,1.87-.97,0-1.55-.11-1.66-.4,0-.07-.04-.14-.04-.22,0-.54,.72-1.08,1.15-1.15h.11c.5,0,1.55,.22,1.55,1.08,0,.11-.04,.22-.07,.36h.36c2.66,0,7.78-1.04,14.47-2.16Zm-16.63,33.19c2.45-.94,3.82-2.81,3.82-4.9,0-.65-.14-1.3-.43-1.98-1.12,2.02-3.1,5.4-3.38,6.88Zm25.74-34.52l.07-.04c.76-1.87,4.9-14.54,4.9-16.92,0-.22-.07-.36-.14-.36-.04,0-.11,0-.18,.07-2.38,2.09-6.84,8.14-12.81,18.43,2.52-.43,5.25-.83,8.17-1.19Z"/><path class="cls-2" d="M245.66,35.13c-.04-.18-.07-.32-.07-.47,0-.29,.11-.5,.32-.68,.18-.14,.36-.22,.58-.22,.11,0,.25,.04,.36,.07,.61,.25,1.04,.83,1.29,1.8,.83,.9,2.02,1.66,4.43,1.84,1.26,.11,2.41,.14,3.42,.14,3.78,0,5.76-.58,5.76-.61h.18c.43,0,.61,.32,.61,.68s-.18,.72-.5,.83c0,0-1.44,.29-4.39,.29-1.3,0-2.88-.07-4.75-.22-1.98-.18-3.24-.5-4.36-1.01-.04,3.1-1.19,7.96-3.89,9.86-.47,.32-1.12,.54-1.69,.54-.29,0-.54-.04-.79-.14-1.04-.43-1.4-1.48-1.4-2.7,0-1.66,.68-3.6,1.08-4.57,.58-1.3,2.52-4.43,3.89-5.29-.04-.04-.07-.11-.07-.14Zm-2.56,6.19c-.18,.5-.86,2.48-.86,3.85,0,.61,.14,1.08,.5,1.22,.07,.04,.14,.04,.22,.04,1.69,0,3.82-7.74,3.82-9.72l-.04-.22c-.11-.07-.18-.14-.25-.22-1.33,1.04-2.74,3.53-3.38,5.04Z"/><path class="cls-2" d="M262.73,38.88c1.4-2.99,3.46-4.9,5.18-4.9,.76,0,1.44,.36,2.02,1.12,1.33,2.95,6.66,3.49,10.66,3.49,1.76,0,3.28-.11,4.03-.14,.43-.04,.76-.36,.83-.36,.14-.04,.29-.07,.36-.07,.22,0,.29,.11,.29,.22,0,.25-.25,.61-.54,.68-.18,.18-2.92,.61-6.12,.61-3.92,0-8.57-.65-10.37-3.17-.22-.29-.47-.43-.72-.43-2.56,0-7.27,11.27-7.31,11.3v.07c0,.43-.5,.61-1.04,.61-.65,0-1.37-.25-1.37-.61,0-.07,.04-.11,.04-.14l3.06-12.81c.25-.68,.83-.94,1.4-.94,.68,0,1.37,.4,1.37,1.04v.07l-1.76,4.36Z"/><path class="cls-2" d="M286.59,43.09c0,.76,.22,1.37,.72,1.69,.18,.14,.47,.18,.83,.18,4.21,0,20.16-6.88,20.16-6.88,.29-.22,.54-.29,.79-.29,.65,0,1.12,.5,1.12,.86,0,.07,0,.14-.07,.22-.04,0-16.63,7.24-22.64,7.24-.9,0-1.58-.14-1.91-.54-1.01-.65-1.37-1.87-1.37-3.24,0-2.52,1.22-5.58,1.87-6.7,.29-.61,.79-.86,1.33-.86,.76,0,1.51,.54,1.51,1.3,0,.11,0,.22-.04,.32,0,0-2.3,4.18-2.3,6.7Zm4.36-13.82c0,.25-.04,.5-.14,.76-.25,.76-.86,1.26-1.44,1.26-.11,0-.22,0-.32-.04-.47-.18-.76-.68-.76-1.3,0-.25,.04-.5,.14-.76,.29-.76,.9-1.26,1.48-1.26,.11,0,.18,0,.29,.04,.47,.18,.76,.68,.76,1.3Z"/><path class="cls-2" d="M314.6,39.96c-2.84,2.7-6.08,5.72-7.63,5.72-.04,0-.11-.04-.18-.04-.4-.07-.68-.29-.94-.58-.29-.36-.4-.79-.4-1.3,0-.18,0-.36,.04-.54,.07-.58,.29-1.3,.65-2.02,1.04-2.3,3.28-5,6.05-5.83,.72-.22,1.37-.29,1.94-.29,1.12,0,1.94,.36,2.48,.9,1.08-.9,2.34-1.8,3.02-1.8,.11,0,.22,.04,.29,.07,.47,.07,.72,.54,.72,1.33,0,.86-.29,2.09-.9,3.64-.4,1.08-.58,1.98-.58,2.7,0,1.87,1.19,2.56,2.95,2.56,4.57,0,13.07-4.82,14.33-6.41,.22-.43,.47-.58,.68-.58,.32,0,.54,.29,.54,.68,0,.22-.07,.43-.25,.65-.43,.61-10.08,6.26-15.69,6.26-2.3,0-3.92-.97-3.92-3.67,0-.72,.11-1.55,.36-2.56,.22-1.37,.68-2.63,.68-2.92v-.04s-.54,.5-1.37,1.3c.14,.43,.14,.86,.14,1.08v.14c-.32,.47-.76,.68-1.15,.68-.14,0-.29-.04-.43-.11l-.11-.32c-.5,.5-.72,.68-1.33,1.26Zm-.61-2.38c-1.73,0-4.75,3.92-4.75,4.75,0,.11,.07,.18,.22,.18,.68,0,2.84-1.73,5.11-4.75-.18-.14-.36-.18-.58-.18Z"/></g></g></svg>