<?xml version="1.0" encoding="utf-8"?>
<!-- Generator: Adobe Illustrator 26.0.0, SVG Export Plug-In . SVG Version: 6.00 Build 0)  -->
<svg version="1.1" id="Capa_1" xmlns="http://www.w3.org/2000/svg" xmlns:xlink="http://www.w3.org/1999/xlink" x="0px" y="0px"
	 viewBox="0 0 512 512" style="enable-background:new 0 0 512 512;" xml:space="preserve">
<style type="text/css">
	.st0{fill:#CFAE85;}
</style>
<g>
	<path class="st0" d="M-717.8,257.6c0,127.8-93.7,233.7-216.1,252.9V332.1h59.5l11.3-73.8h-70.8v-47.9c0-20.2,9.9-39.9,41.6-39.9
		h32.2v-62.8c0,0-29.2-5-57.2-5c-58.3,0-96.4,35.3-96.4,99.3v56.3h-64.8V332h64.8v178.4c-122.3-19.2-216.1-125.1-216.1-252.9
		c0-141.4,114.6-256,256-256S-717.8,116.2-717.8,257.6z"/>
</g>
<g id="Camada_1-2">
	<g>
		<path class="st0" d="M-251.4,510.4H-475c-81.6,0-147.9-65.1-147.9-144.7V146.3C-623,66.6-556.6,1.6-475,1.6h223.7
			c81.6,0,147.9,65.1,147.9,144.7v219.2c0,80-66.4,144.7-147.9,144.7V510.4z M-475,45.3c-57,0-103.3,45.3-103.3,101.3v219.2
			c0,55.7,46.3,101.3,103.3,101.3h223.7c57,0,103.3-45.3,103.3-101.3V146.3c0-55.7-46.3-101.3-103.3-101.3H-475V45.3z"/>
		<path class="st0" d="M-363,386.1c-73.5,0-133-58.6-133-130.1s59.6-130.1,133-130.1s133,58.6,133,130.1S-289.6,386.1-363,386.1z
			 M-363,169.2c-48.9,0-88.4,38.8-88.4,86.8s39.8,86.8,88.4,86.8s88.4-38.8,88.4-86.8S-314.5,169.2-363,169.2z"/>
		<path class="st0" d="M-192.4,118.1c0,17.2-14.2,31.4-32,31.4s-32-13.9-32-31.4s14.2-31.4,32-31.4S-192.4,100.6-192.4,118.1z"/>
	</g>
</g>
<g id="Camada_1-2_00000098923780386942081630000015055267818175616136_">
	<g>
		<path class="st0" d="M256,506.7c-44.7,0-88.8-11.7-127.7-33.6l-99.7,33.6l20.6-103.5C17,360,0,309.5,0,256
			C0,117.7,114.8,5.3,256,5.3S512,117.7,512,256S397.2,506.7,256,506.7z M133,432l7.7,4.8c34.8,21.4,74.7,32.6,115.3,32.6
			c120.1,0,218-95.8,218-213.3S376.1,42.7,256,42.7S38,138.3,38,256c0,47.8,15.9,93.2,46.3,131.1l5.3,6.7l-11.1,56.5l54.3-18.3H133z
			"/>
		<path class="st0" d="M126.8,159.7c0,0,15.1-25.7,27.2-27.2c12.2-1.5,27.9-1.5,32.2,6.3c4.3,7.9,23.3,53.5,23.3,53.5
			s3.3,7.9-1.7,15.4c-5,7.5-16.3,18.7-16.3,18.7s-6.2,7.9,0,16.1c6.2,8.4,15.9,23.6,36,43.2c20,19.7,58.4,33.6,58.4,33.6
			s5.5,0.7,9.1-2.7c3.4-3.4,22.4-26.7,22.4-26.7s6.2-7.7,16.3-3.3c10.1,4.5,54,25.9,54,25.9s5.1,1.9,5.1,9.4
			c0,7.5-3.1,26.2-9.6,32.4c-6.3,6.3-25.2,25.7-53.3,25.7s-95.3-22.4-131.1-57.4s-67.5-70.6-75.1-102.8c-7.5-32.4-6.5-47,2.7-60.3
			L126.8,159.7z"/>
	</g>
</g>
</svg>
