<?xml version="1.0" encoding="UTF-8"?><svg id="Camada_2" xmlns="http://www.w3.org/2000/svg" viewBox="0 0 7.3 15.72"><defs><style>.cls-1{fill:#fff;fill-rule:evenodd;}</style></defs><g id="Camada_1-2"><path class="cls-1" d="M1.61,7.92v7.6c0,.11,.09,.2,.2,.2h2.82c.11,0,.2-.09,.2-.2V7.8h2.05c.1,0,.19-.08,.2-.18l.2-2.33c0-.12-.08-.21-.2-.21h-2.24v-1.65c0-.39,.31-.7,.7-.7h1.58c.11,0,.2-.09,.2-.2V.2c0-.11-.09-.2-.2-.2h-2.66C2.88,0,1.61,1.27,1.61,2.83v2.24H.2c-.11,0-.2,.09-.2,.2v2.33c0,.11,.09,.2,.2,.2H1.61v.12Z"/></g></svg>