<?xml version="1.0" encoding="utf-8"?>
<!-- Generator: Adobe Illustrator 26.0.0, SVG Export Plug-In . SVG Version: 6.00 Build 0)  -->
<svg version="1.1" id="Capa_1" xmlns="http://www.w3.org/2000/svg" xmlns:xlink="http://www.w3.org/1999/xlink" x="0px" y="0px"
	 viewBox="0 0 512 512" style="enable-background:new 0 0 512 512;" xml:space="preserve">
<style type="text/css">
	.st0{fill:#FFFFFF;}
</style>
<g id="Camada_1-2">
	<path class="st0" d="M367.8,510.4H144.2c-81.6,0-147.9-65.1-147.9-144.7V146.3C-3.8,66.6,62.6,1.6,144.2,1.6h223.7
		c81.6,0,147.9,65.1,147.9,144.7v219.2c0,80-66.4,144.7-147.9,144.7L367.8,510.4z M144.2,45.3c-57,0-103.3,45.3-103.3,101.3v219.2
		c0,55.7,46.3,101.3,103.3,101.3h223.7c57,0,103.3-45.3,103.3-101.3V146.3c0-55.7-46.3-101.3-103.3-101.3H144.2V45.3z"/>
	<path class="st0" d="M256.2,386.1c-73.5,0-133-58.6-133-130.1s59.6-130.1,133.1-130.1s133,58.6,133,130.1S329.6,386.1,256.2,386.1z
		 M256.2,169.2c-48.9,0-88.4,38.8-88.4,86.8s39.8,86.8,88.4,86.8s88.4-38.9,88.4-86.8S304.7,169.2,256.2,169.2z"/>
	<path class="st0" d="M426.8,118.1c0,17.2-14.2,31.4-32,31.4s-32-13.9-32-31.4s14.2-31.4,32-31.4S426.8,100.6,426.8,118.1z"/>
</g>
</svg>
