<?xml version="1.0" encoding="UTF-8"?><svg id="Camada_2" xmlns="http://www.w3.org/2000/svg" viewBox="0 0 29.88 29.26"><defs><style>.cls-1{fill:#fff;}</style></defs><g id="Camada_1-2"><g><path class="cls-1" d="M14.94,29.26c-2.61,0-5.18-.68-7.45-1.96l-5.82,1.96,1.2-6.04C.99,20.7,0,17.75,0,14.63,0,6.56,6.7,0,14.94,0s14.94,6.56,14.94,14.63-6.7,14.63-14.94,14.63Zm-7.18-4.36l.45,.28c2.03,1.25,4.36,1.9,6.73,1.9,7.01,0,12.72-5.59,12.72-12.45S21.95,2.18,14.94,2.18,2.22,7.76,2.22,14.63c0,2.79,.93,5.44,2.7,7.65l.31,.39-.65,3.3,3.17-1.07Z"/><path class="cls-1" d="M7.4,9.01s.88-1.5,1.59-1.59c.71-.09,1.63-.09,1.88,.37,.25,.46,1.36,3.12,1.36,3.12,0,0,.19,.46-.1,.9-.29,.44-.95,1.09-.95,1.09,0,0-.36,.46,0,.94,.36,.49,.93,1.38,2.1,2.52,1.17,1.15,3.41,1.96,3.41,1.96,0,0,.32,.04,.53-.16,.2-.2,1.31-1.56,1.31-1.56,0,0,.36-.45,.95-.19,.59,.26,3.15,1.51,3.15,1.51,0,0,.3,.11,.3,.55s-.18,1.53-.56,1.89c-.37,.37-1.47,1.5-3.11,1.5s-5.56-1.31-7.65-3.35c-2.09-2.04-3.94-4.12-4.38-6-.44-1.89-.38-2.74,.16-3.52Z"/></g></g></svg>