<?xml version="1.0" encoding="UTF-8"?><svg id="Camada_2" xmlns="http://www.w3.org/2000/svg" viewBox="0 0 336.16 74.91"><defs><style>.cls-1{opacity:.1;}.cls-2{fill:#1e1e1e;}</style></defs><g id="Camada_1-2"><g class="cls-1"><path class="cls-2" d="M42.37,17.75c.72-1.55,3.02-7.7,3.02-11.95,0-2.41-.72-4.21-2.92-4.21-.25,0-.5,.04-.76,.07-1.44,.22-3.17,.83-5.04,1.8-5.26,2.74-11.52,8.21-15.05,15.23-.65,1.26-.9,2.41-.9,3.42,0,2.84,2.12,4.71,4.68,5.97,2.45,1.26,5.29,1.94,7.02,2.38,1.3,.29,2.12,.5,2.16,1.19v.04c0,.61-.65,.94-2.16,1.04-1.19,.07-2.74,.65-4.54,1.55-5.04,2.59-11.81,7.99-17.24,13.89-5.18,5.62-9.25,12.09-9.25,16.49v.5c.25,3.31,2.23,4.68,5.26,4.68,12.71,0,44.35-24.12,47.95-26.85,.14-.14,.32-.18,.47-.18,.76,0,1.51,1.22,1.51,1.91,0,.18-.07,.32-.22,.4-4.64,2.34-36.07,25.56-49.85,25.56-3.74,0-6.19-1.66-6.48-5.9,0-.18-.04-.4-.04-.58,0-4.82,4.1-11.23,9.5-17.06,5.54-6.05,12.49-11.55,17.67-14.25,1.15-.58,2.2-1.01,3.17-1.33-1.66-.43-3.74-1.08-5.65-2.02-3.02-1.55-5.62-3.82-5.62-7.27,0-1.26,.32-2.7,1.12-4.28,3.71-7.34,10.26-13.07,15.77-15.91,2.02-1.04,3.92-1.73,5.51-1.98,.36-.07,.72-.07,1.01-.07,3.38,0,4.46,2.95,4.46,6.77,0,6.41-3.06,15.19-3.85,16.59-.5,.76-1.84,1.58-2.95,1.58-1.01,0-1.84-.61-1.84-2.45v-.36s2.74-1.62,4.07-4.39Zm-9.39,13.86s-.07,0-.11,.04c.07,.14,.11,.22,.14,.22v-.11c0-.11,0-.14-.04-.14Z"/><path class="cls-2" d="M61.92,37.87c0-.22-.07-.36-.29-.36-.18,0-.43,.07-.76,.25-.72,.36-1.98,1.48-3.1,2.95-.76,1.01-1.04,1.94-1.04,2.84,0,2.34,2.12,4.46,3.85,7.27,3.31-2.38,6.16-4.14,9.83-5.94,2.09-1.04,4.82-2.38,7.31-3.28,.83,.07,1.26,.76,1.26,1.4,0,.4-.18,.79-.54,1.01-2.48,.29-4.68,1.26-6.73,2.27-3.71,1.8-7.16,3.35-10.51,5.79,.65,1.19,.94,2.59,.94,4,0,5.4-4.07,11.52-8.89,11.52-.47,0-.94-.07-1.4-.18-1.44-.32-2.02-1.73-2.02-3.17,0-.54,.11-1.08,.25-1.58,.76-2.41,3.78-6.59,9.86-11.16-1.37-2.3-5.08-5.22-5.08-8.6,0-1.01,.32-2.05,1.15-3.17,1.33-1.8,3.42-2.88,4.21-3.28,.83-.36,1.48-.5,1.98-.5,.97,0,1.4,.54,1.51,1.4,.04,.18,.04,.36,.04,.58,0,2.2-1.19,4.97-1.19,5-.29,.4-.76,.54-1.22,.54-.76,0-1.55-.47-1.55-1.26,0-.11,0-.22,.04-.32,0-.04,2.09-3.02,2.09-4.03Zm-10.48,25.23c-.11,.32-.18,.72-.18,1.08,0,.58,.22,1.12,.9,1.3,.32,.11,.65,.14,1.01,.14,3.89,0,7.77-5.9,7.77-10.44,0-.94-.14-1.8-.5-2.56-5.44,4.18-8.31,8.35-9,10.47Z"/><path class="cls-2" d="M75.89,53.17c1.19-2.63,5.69-14.97,11.55-14.97,.54,0,1.12,.11,1.69,.32,1.37,.97,1.91,2.99,1.91,4.75,0,.5-.07,1.04-.14,1.48,3.06-.97,6.05-1.73,9.03-1.73,.4,0,.79,0,1.22,.04,.32,.04,.43,.29,.43,.58,0,.47-.36,1.04-.79,1.04h-.07c-.97-.11-1.91-.18-2.84-.18-2.3,0-4.54,.4-7.05,1.3-1.22,3.53-4.5,7.88-8.6,8.32-.25,.04-.47,.04-.65,.04-1.01,0-1.55-.29-1.94-.61-.36-.25-.5-.58-.5-.9,0-2.48,8.96-6.66,10.04-7.27,.04-.07,.07-.18,.11-.25,.04-.25,.07-.58,.07-.94,0-1.4-.4-3.46-1.22-4.03-.58-.47-1.19-.68-1.76-.68-6.44,0-13.32,26.02-15.15,33.55-.04,.11-.04,.25-.04,.4,0,.32,.04,.76,.04,1.04v.22c-.04,.14-.4,.25-.76,.25-.47,0-1.04-.18-1.04-.72,0-.07,0-.14,.04-.22,2.45-12.13,4.93-21.27,8.24-33.55l-.11-2.34c.11-.86,.83-1.22,1.48-1.22,.61,0,1.19,.32,1.19,.79v.14l-4.36,15.37Zm12.85-6.59c-3.13,1.12-8.67,4.71-8.67,5.9,0,.11,.07,.18,.14,.25,.18,.14,.29,.4,.97,.4,.14,0,.25-.04,.43-.04,3.1-.29,5.9-3.78,7.13-6.51Z"/><path class="cls-2" d="M107.13,41.11c0,3.02-4.86,4.97-5.87,5.36,0,.22-.04,.47-.04,.72,0,.86,.14,1.87,.58,2.52,.47,.72,1.26,1.04,2.27,1.04,4.97,0,14.9-7.49,14.94-7.52,.14-.11,.29-.14,.43-.14,.47,0,.86,.43,.86,.86,0,.18-.11,.36-.29,.5-.07,.04-9.75,7.02-15.66,7.02-1.55,0-2.84-.47-3.64-1.69-.68-1.01-.94-2.09-.94-3.13,0-2.02,1.01-3.92,2.2-5.33,.65-.76,1.37-1.33,2.02-1.69,.5-.29,.97-.43,1.44-.43,.25,0,.5,.04,.72,.14,.5,.22,.86,.68,.94,1.37,0,.14,.04,.25,.04,.4Zm-2.2,0c0-.07-.04-.11-.11-.11-.72,.11-1.4,1.44-3.06,3.6,2.3-1.98,3.17-3.17,3.17-3.49Z"/><path class="cls-2" d="M125.75,39.52c0-.11-.04-.18-.18-.18-1.94,.9-6.7,5.76-6.7,9.04,0,.36,.04,.68,.18,1.01,.25,.61,.72,1.12,1.48,1.33,.25,.11,.61,.14,.97,.14,.86,0,1.98-.22,3.06-.5,2.88-.76,6.33-2.81,11.95-7.02,.22-.14,.47-.22,.68-.22,.47,0,.86,.25,.86,.58,0,.18-.07,.36-.32,.54-5.8,4.36-10.08,6.55-13.1,7.34-1.01,.29-1.91,.4-2.66,.4-.65,0-1.22-.07-1.73-.25-1.19-.4-1.94-1.19-2.34-2.16-.25-.65-.4-1.33-.4-2.09,0-4.36,4.28-9.72,8.39-9.72h.36c.25,0,.5,.07,.76,.14,.72,.36,.97,1.04,.97,1.76,0,1.4-.86,2.99-.9,3.02-.18,.14-.54,.25-.94,.25-.83,0-1.91-.4-1.91-1.12,.25-.4,1.51-1.76,1.51-2.3Z"/><path class="cls-2" d="M137.59,48.16c0,.76,.22,1.37,.72,1.69,.18,.14,.47,.18,.83,.18,4.21,0,20.16-6.88,20.16-6.88,.29-.22,.54-.29,.79-.29,.65,0,1.12,.5,1.12,.86,0,.07,0,.14-.07,.22-.04,0-16.63,7.24-22.64,7.24-.9,0-1.58-.14-1.91-.54-1.01-.65-1.37-1.87-1.37-3.24,0-2.52,1.22-5.58,1.87-6.7,.29-.61,.79-.86,1.33-.86,.76,0,1.51,.54,1.51,1.3,0,.11,0,.22-.04,.32,0,0-2.3,4.18-2.3,6.7Zm4.36-13.82c0,.25-.04,.5-.14,.76-.25,.76-.86,1.26-1.44,1.26-.11,0-.22,0-.32-.04-.47-.18-.76-.68-.76-1.3,0-.25,.04-.5,.14-.76,.29-.76,.9-1.26,1.48-1.26,.11,0,.18,0,.29,.04,.47,.18,.76,.68,.76,1.3Z"/><path class="cls-2" d="M165.6,45.03c-2.84,2.7-6.08,5.72-7.63,5.72-.04,0-.11-.04-.18-.04-.4-.07-.68-.29-.94-.58-.29-.36-.4-.79-.4-1.3,0-.18,0-.36,.04-.54,.07-.58,.29-1.3,.65-2.02,1.04-2.3,3.28-5,6.05-5.83,.72-.22,1.37-.29,1.94-.29,1.12,0,1.94,.36,2.48,.9,1.08-.9,2.34-1.8,3.02-1.8,.11,0,.22,.04,.29,.07,.47,.07,.72,.54,.72,1.33,0,.86-.29,2.09-.9,3.64-.4,1.08-.58,1.98-.58,2.7,0,1.87,1.19,2.56,2.95,2.56,4.57,0,13.07-4.82,14.33-6.41,.22-.43,.47-.58,.68-.58,.32,0,.54,.29,.54,.68,0,.22-.07,.43-.25,.65-.43,.61-10.08,6.26-15.69,6.26-2.3,0-3.92-.97-3.92-3.67,0-.72,.11-1.55,.36-2.56,.22-1.37,.68-2.63,.68-2.92v-.04s-.54,.5-1.37,1.3c.14,.43,.14,.86,.14,1.08v.14c-.32,.47-.76,.68-1.15,.68-.14,0-.29-.04-.43-.11l-.11-.32c-.5,.5-.72,.68-1.33,1.26Zm-.61-2.38c-1.73,0-4.75,3.92-4.75,4.75,0,.11,.07,.18,.22,.18,.68,0,2.84-1.73,5.11-4.75-.18-.14-.36-.18-.58-.18Z"/><path class="cls-2" d="M185.4,62.16c0,1.12,.14,1.98,.4,2.52,.36,.76,.9,1.12,1.55,1.12,5.29,0,18.86-21.78,18.9-21.85,.36-.54,.76-.76,1.08-.76,.4,0,.68,.29,.68,.79v.04c-.04,.07-14.25,22.28-20.77,22.28-.97,0-1.76-.5-2.34-1.66-.36-.76-.5-1.94-.5-3.38,0-9.43,6.98-31.17,11.77-37.76,1.15-1.98,2.3-3.64,3.28-4.79,1.12-1.26,2.12-1.98,2.95-1.98h.04c.61,.04,1.08,.43,1.37,1.19,.14,.4,.22,.86,.22,1.4,0,6.48-10.26,21.67-14.61,24.58-2.66,8.53-4,14.76-4,18.25Zm17.24-43.34c0-.18-.04-.32-.07-.43-.11-.22-.18-.32-.25-.32h-.04c-.36,0-1.01,.58-1.84,1.51-.94,1.08-2.02,2.66-3.13,4.57-2.23,3.82-5.11,11.77-6.8,16.52,2.23-2.05,12.13-18.03,12.13-21.85Z"/><path class="cls-2" d="M207.9,48.16c0,.76,.22,1.37,.72,1.69,.18,.14,.47,.18,.83,.18,4.21,0,20.16-6.88,20.16-6.88,.29-.22,.54-.29,.79-.29,.65,0,1.12,.5,1.12,.86,0,.07,0,.14-.07,.22-.04,0-16.63,7.24-22.64,7.24-.9,0-1.58-.14-1.91-.54-1.01-.65-1.37-1.87-1.37-3.24,0-2.52,1.22-5.58,1.87-6.7,.29-.61,.79-.86,1.33-.86,.76,0,1.51,.54,1.51,1.3,0,.11,0,.22-.04,.32,0,0-2.3,4.18-2.3,6.7Zm4.36-13.82c0,.25-.04,.5-.14,.76-.25,.76-.86,1.26-1.44,1.26-.11,0-.22,0-.32-.04-.47-.18-.76-.68-.76-1.3,0-.25,.04-.5,.14-.76,.29-.76,.9-1.26,1.48-1.26,.11,0,.18,0,.29,.04,.47,.18,.76,.68,.76,1.3Z"/><path class="cls-2" d="M248.72,19.26c1.73-2.88,2.99-3.71,3.82-3.71,.72,0,1.08,.68,1.08,1.12,0,.07,0,.14-.04,.22v.25c0,7.38-12.89,24.94-12.89,24.94l-2.63,7.13c-2.34,6.44-3.49,14.18-3.49,17.71,0,.43,0,.76,.04,1.04,.29,2.77,1.98,3.64,2.63,3.64,.43,0,.86,.4,.86,.79,0,.22-.11,.4-.36,.54-.11,.07-.25,.11-.4,.11-.65,0-1.37-.79-1.37-.79-1.66-1.76-1.98-4.97-1.98-4.97-.04-.43-.04-.86-.04-1.3,0-7.27,3.42-18.47,4.82-21.49,0,0-5.08,6.16-7.49,7.31-.43,.22-.86,.32-1.22,.32-1.19,0-1.94-1.08-1.94-2.77,0-.65,.14-1.37,.36-2.2,1.01-3.64,3.2-7.63,6.66-8.57,.47-.14,.9-.18,1.33-.18,2.45,0,3.42,2.16,3.42,2.16,2.84-8.06,5.25-15.33,8.82-21.31Zm-11.41,21.06c-.11,0-.22,.04-.32,.04-1.58,.25-3.82,2.41-5.36,5.11-.79,1.33-1.51,3.35-1.51,4.43,0,.47,.14,.76,.47,.76,.43,0,1.22-.58,2.52-2.09,4.39-5.08,5.69-6.7,5.69-6.7,0,0-.14-1.55-1.48-1.55Zm13.68-19.26c.5-1.22,1.33-2.92,1.33-3.64,0-.22-.07-.32-.25-.32h-.04c-.86,.07-2.84,3.31-2.84,3.31-2.99,4.72-6.62,16.63-6.62,16.63,3.1-5.36,7.74-14.36,8.42-15.98Z"/><path class="cls-2" d="M254.19,45.03c-2.84,2.7-6.08,5.72-7.63,5.72-.04,0-.11-.04-.18-.04-.4-.07-.68-.29-.94-.58-.29-.36-.4-.79-.4-1.3,0-.18,0-.36,.04-.54,.07-.58,.29-1.3,.65-2.02,1.04-2.3,3.28-5,6.05-5.83,.72-.22,1.37-.29,1.94-.29,1.12,0,1.94,.36,2.48,.9,1.08-.9,2.34-1.8,3.02-1.8,.11,0,.22,.04,.29,.07,.47,.07,.72,.54,.72,1.33,0,.86-.29,2.09-.9,3.64-.4,1.08-.58,1.98-.58,2.7,0,1.87,1.19,2.56,2.95,2.56,4.57,0,13.07-4.82,14.33-6.41,.22-.43,.47-.58,.68-.58,.32,0,.54,.29,.54,.68,0,.22-.07,.43-.25,.65-.43,.61-10.08,6.26-15.69,6.26-2.3,0-3.92-.97-3.92-3.67,0-.72,.11-1.55,.36-2.56,.22-1.37,.68-2.63,.68-2.92v-.04s-.54,.5-1.37,1.3c.14,.43,.14,.86,.14,1.08v.14c-.32,.47-.76,.68-1.15,.68-.14,0-.29-.04-.43-.11l-.11-.32c-.5,.5-.72,.68-1.33,1.26Zm-.61-2.38c-1.73,0-4.75,3.92-4.75,4.75,0,.11,.07,.18,.22,.18,.68,0,2.84-1.73,5.11-4.75-.18-.14-.36-.18-.58-.18Z"/><path class="cls-2" d="M295.09,19.26c1.73-2.88,2.99-3.71,3.82-3.71,.72,0,1.08,.68,1.08,1.12,0,.07,0,.14-.04,.22v.25c0,7.38-12.89,24.94-12.89,24.94l-2.63,7.13c-2.34,6.44-3.49,14.18-3.49,17.71,0,.43,0,.76,.04,1.04,.29,2.77,1.98,3.64,2.63,3.64,.43,0,.86,.4,.86,.79,0,.22-.11,.4-.36,.54-.11,.07-.25,.11-.4,.11-.65,0-1.37-.79-1.37-.79-1.66-1.76-1.98-4.97-1.98-4.97-.04-.43-.04-.86-.04-1.3,0-7.27,3.42-18.47,4.82-21.49,0,0-5.08,6.16-7.49,7.31-.43,.22-.86,.32-1.22,.32-1.19,0-1.94-1.08-1.94-2.77,0-.65,.14-1.37,.36-2.2,1.01-3.64,3.2-7.63,6.66-8.57,.47-.14,.9-.18,1.33-.18,2.45,0,3.42,2.16,3.42,2.16,2.84-8.06,5.25-15.33,8.82-21.31Zm-11.41,21.06c-.11,0-.22,.04-.32,.04-1.58,.25-3.82,2.41-5.36,5.11-.79,1.33-1.51,3.35-1.51,4.43,0,.47,.14,.76,.47,.76,.43,0,1.22-.58,2.52-2.09,4.39-5.08,5.69-6.7,5.69-6.7,0,0-.14-1.55-1.48-1.55Zm13.68-19.26c.5-1.22,1.33-2.92,1.33-3.64,0-.22-.07-.32-.25-.32h-.04c-.86,.07-2.84,3.31-2.84,3.31-2.99,4.72-6.62,16.63-6.62,16.63,3.1-5.36,7.74-14.36,8.42-15.98Z"/><path class="cls-2" d="M300.88,41.11c0,3.02-4.86,4.97-5.87,5.36,0,.22-.04,.47-.04,.72,0,.86,.14,1.87,.58,2.52,.47,.72,1.26,1.04,2.27,1.04,4.97,0,14.9-7.49,14.94-7.52,.14-.11,.29-.14,.43-.14,.47,0,.86,.43,.86,.86,0,.18-.11,.36-.29,.5-.07,.04-9.75,7.02-15.66,7.02-1.55,0-2.84-.47-3.64-1.69-.68-1.01-.94-2.09-.94-3.13,0-2.02,1.01-3.92,2.2-5.33,.65-.76,1.37-1.33,2.02-1.69,.5-.29,.97-.43,1.44-.43,.25,0,.5,.04,.72,.14,.5,.22,.86,.68,.94,1.37,0,.14,.04,.25,.04,.4Zm-2.2,0c0-.07-.04-.11-.11-.11-.72,.11-1.4,1.44-3.06,3.6,2.3-1.98,3.17-3.17,3.17-3.49Z"/><path class="cls-2" d="M319.1,37.87c0-.22-.07-.36-.29-.36-.18,0-.43,.07-.76,.25-.72,.36-1.98,1.48-3.1,2.95-.76,1.01-1.04,1.94-1.04,2.84,0,2.34,2.12,4.46,3.85,7.27,3.31-2.38,6.16-4.14,9.83-5.94,2.09-1.04,4.82-2.38,7.31-3.28,.83,.07,1.26,.76,1.26,1.4,0,.4-.18,.79-.54,1.01-2.48,.29-4.68,1.26-6.73,2.27-3.71,1.8-7.16,3.35-10.51,5.79,.65,1.19,.94,2.59,.94,4,0,5.4-4.07,11.52-8.89,11.52-.47,0-.94-.07-1.4-.18-1.44-.32-2.02-1.73-2.02-3.17,0-.54,.11-1.08,.25-1.58,.76-2.41,3.78-6.59,9.86-11.16-1.37-2.3-5.08-5.22-5.08-8.6,0-1.01,.32-2.05,1.15-3.17,1.33-1.8,3.42-2.88,4.21-3.28,.83-.36,1.48-.5,1.98-.5,.97,0,1.4,.54,1.51,1.4,.04,.18,.04,.36,.04,.58,0,2.2-1.19,4.97-1.19,5-.29,.4-.76,.54-1.22,.54-.76,0-1.55-.47-1.55-1.26,0-.11,0-.22,.04-.32,0-.04,2.09-3.02,2.09-4.03Zm-10.47,25.23c-.11,.32-.18,.72-.18,1.08,0,.58,.22,1.12,.9,1.3,.32,.11,.65,.14,1.01,.14,3.89,0,7.78-5.9,7.78-10.44,0-.94-.14-1.8-.5-2.56-5.44,4.18-8.31,8.35-9,10.47Z"/></g></g></svg>