<?xml version="1.0" encoding="UTF-8"?><svg id="Camada_2" xmlns="http://www.w3.org/2000/svg" viewBox="0 0 217.54 64.54"><defs><style>.cls-1{opacity:.1;}.cls-2{fill:#1e1e1e;}</style></defs><g id="Camada_1-2"><g class="cls-1"><path class="cls-2" d="M29.41,40.35c.65-2.38,1.73-4.75,2.02-6.95-5.26,.58-6.59,.07-10.94,2.16-.11,.11-.22,.14-.32,.14-.25,0-.4-.4-.4-.83,0-.65,.25-1.44,.65-1.62,.04-.04,5.65-.83,11.19-1.3,.04-1.19,.04-2.34,.04-3.53,0-7.88-1.01-15.23-7.99-20.05-6.41,.54-11.27,.76-14.87,.76-6.33,0-8.78-.68-8.78-1.51,0-.04,.04-.11,.04-.14,.47-1.29,6.52-2.88,12.67-2.88,3.64,0,7.31,.54,9.9,2.05,.18,.11,.32,.22,.47,.29,3.02-.25,6.01-.54,8.78-.9,2.7-.36,5.9-.76,9.36-1.19,.18-.86,.4-1.37,.4-1.8,0-.36-.14-.68-.68-1.19-.07-.22-.11-.43-.11-.61,0-.86,.72-1.26,1.4-1.26,.61,0,1.22,.36,1.22,.97v.18c-.14,1.15-.36,2.3-.61,3.53,1.73-.18,16.74-2.77,27.32-2.77,5.94,0,10.51,.83,10.51,3.35,0,.61-.25,1.37-.86,2.2-.07,.14-.22,.18-.4,.18-.79,0-2.27-1.01-2.27-1.51,.54-.54,.79-1.01,.79-1.4,0-1.33-2.81-1.8-6.8-1.8-10.08,0-27.86,3.02-28.65,3.35-1.76,7.78-4.86,16.95-8.06,25.52,1.51-.11,3.02-.14,4.39-.14,3.82,0,6.73,.43,6.73,1.76v.11c-.22,.43-.43,.61-.68,.61-.29,0-.54-.29-.83-.76v-.04c0-.47-1.22-.65-3.1-.65s-4.39,.18-7.06,.43c-1.01,2.7-2.05,5.29-3.02,7.74-1.58,5.76-5.11,16.38-8.89,22.96-.22,.29-.5,.43-.83,.43-.5,0-1.04-.43-1.26-1.19,.04-.04,5.29-12.24,9.54-22.71ZM12.02,5.83c-4.43,0-8.39,.86-8.39,1.44,0,.04,0,.07,.04,.11,.22,.25,1.4,.43,3.89,.43,2.63,0,6.73-.18,12.67-.61-2.27-1.01-5.33-1.37-8.21-1.37Zm28.83,.61c-3.24,.4-6.26,.76-8.82,1.12-2.23,.29-4.61,.54-7.06,.76,5.76,4.79,7.74,12.35,7.74,19.62,0,1.33-.07,2.66-.18,3.96h.18c3.2-8.5,6.34-17.67,8.14-25.45Z"/><path class="cls-2" d="M53.06,32.61c0,3.02-4.86,4.97-5.87,5.36,0,.22-.04,.47-.04,.72,0,.86,.14,1.87,.58,2.52,.47,.72,1.26,1.04,2.27,1.04,4.97,0,14.9-7.49,14.94-7.52,.14-.11,.29-.14,.43-.14,.47,0,.86,.43,.86,.86,0,.18-.11,.36-.29,.5-.07,.04-9.75,7.02-15.66,7.02-1.55,0-2.84-.47-3.64-1.69-.68-1.01-.94-2.09-.94-3.13,0-2.02,1.01-3.92,2.2-5.33,.65-.76,1.37-1.33,2.02-1.69,.5-.29,.97-.43,1.44-.43,.25,0,.5,.04,.72,.14,.5,.22,.86,.68,.94,1.37,0,.14,.04,.25,.04,.4Zm-2.2,0c0-.07-.04-.11-.11-.11-.72,.11-1.4,1.44-3.06,3.6,2.3-1.98,3.17-3.17,3.17-3.49Z"/><path class="cls-2" d="M70.77,32.61c0,3.02-4.86,4.97-5.87,5.36,0,.22-.04,.47-.04,.72,0,.86,.14,1.87,.58,2.52,.47,.72,1.26,1.04,2.27,1.04,4.97,0,14.9-7.49,14.94-7.52,.14-.11,.29-.14,.43-.14,.47,0,.86,.43,.86,.86,0,.18-.11,.36-.29,.5-.07,.04-9.75,7.02-15.66,7.02-1.55,0-2.84-.47-3.64-1.69-.68-1.01-.94-2.09-.94-3.13,0-2.02,1.01-3.92,2.2-5.33,.65-.76,1.37-1.33,2.02-1.69,.5-.29,.97-.43,1.44-.43,.25,0,.5,.04,.72,.14,.5,.22,.86,.68,.94,1.37,0,.14,.04,.25,.04,.4Zm-2.2,0c0-.07-.04-.11-.11-.11-.72,.11-1.4,1.44-3.06,3.6,2.3-1.98,3.17-3.17,3.17-3.49Z"/><path class="cls-2" d="M100.98,10.76c1.73-2.88,2.99-3.71,3.82-3.71,.72,0,1.08,.68,1.08,1.12,0,.07,0,.14-.04,.22v.25c0,7.38-12.89,24.94-12.89,24.94l-2.63,7.13c-2.34,6.44-3.49,14.18-3.49,17.71,0,.43,0,.76,.04,1.04,.29,2.77,1.98,3.64,2.63,3.64,.43,0,.86,.4,.86,.79,0,.22-.11,.4-.36,.54-.11,.07-.25,.11-.4,.11-.65,0-1.37-.79-1.37-.79-1.66-1.76-1.98-4.97-1.98-4.97-.04-.43-.04-.86-.04-1.3,0-7.27,3.42-18.47,4.82-21.49,0,0-5.08,6.16-7.49,7.31-.43,.22-.86,.32-1.22,.32-1.19,0-1.94-1.08-1.94-2.77,0-.65,.14-1.37,.36-2.2,1.01-3.64,3.2-7.63,6.66-8.57,.47-.14,.9-.18,1.33-.18,2.45,0,3.42,2.16,3.42,2.16,2.84-8.06,5.26-15.33,8.82-21.31Zm-11.41,21.06c-.11,0-.22,.04-.32,.04-1.58,.25-3.82,2.41-5.36,5.11-.79,1.33-1.51,3.35-1.51,4.43,0,.47,.14,.76,.47,.76,.43,0,1.22-.58,2.52-2.09,4.39-5.08,5.69-6.7,5.69-6.7,0,0-.14-1.55-1.48-1.55Zm13.68-19.26c.5-1.22,1.33-2.92,1.33-3.64,0-.22-.07-.32-.25-.32h-.04c-.86,.07-2.84,3.31-2.84,3.31-2.99,4.72-6.62,16.63-6.62,16.63,3.1-5.36,7.74-14.36,8.42-15.98Z"/><path class="cls-2" d="M103.43,31.64l-.29,.32c-.9,4.17-1.44,7.16-1.8,9.25,1.8-4.86,4.97-10.94,9.97-10.94h.07c3.17,.29,4.14,2.56,4.14,5,0,.65-.07,1.37-.18,2.02,2.52-1.19,4.89-1.84,7.85-2.27h.07c.4,0,.58,.32,.58,.65,0,.29-.14,.54-.4,.58-3.1,.47-5.58,.68-8.17,1.98-.61,3.53-1.8,7.09-3.92,9.97-2.09,2.77-4.82,5-6.77,5-.68,0-1.3-.29-1.69-.94-.18-.4-.25-.79-.25-1.26,0-4.43,7.38-11.12,10.73-12.67,.11-.5,.18-1.22,.18-2.02,0-2.05-.54-4.5-2.41-4.5h-.07c-6.8,0-10.22,13.75-10.26,13.82-.14,.25-.4,.43-.65,.43-.22,0-.43-.11-.5-.47,0,0-.07-.4-.07-1.4,0-1.84,.25-5.76,1.87-13.03,1.55-7.09,6.23-19.01,11.52-24.3,.68-.68,1.58-1.08,2.27-1.08,.22,0,.4,.04,.58,.11,.18,.11,.36,.29,.54,.54,.25,.4,.36,.94,.36,1.62,0,2.05-1.19,5.26-2.99,8.71-2.81,5.36-6.88,11.12-10.29,14.87Zm-.32,19.58c0,.32,.11,.61,.29,.83,.25,.36,.61,.54,1.01,.54,1.37,0,3.28-2.09,4.93-4.43,2.2-3.13,3.02-5.29,3.96-8.93-2.38,.9-10.19,8.82-10.19,11.99Zm8.67-35.1c.5-.97,3.74-6.84,3.74-8.93,0-.22-.04-.4-.11-.54-.07-.04-.11-.04-.18-.04-.29,0-.72,.29-1.22,.83-4.21,4.21-8.46,14.61-9.79,20.23,3.17-4.14,5.04-6.66,7.56-11.55Z"/><path class="cls-2" d="M129.2,36.54c-2.84,2.7-6.08,5.72-7.63,5.72-.04,0-.11-.04-.18-.04-.4-.07-.68-.29-.94-.58-.29-.36-.4-.79-.4-1.3,0-.18,0-.36,.04-.54,.07-.58,.29-1.3,.65-2.02,1.04-2.3,3.28-5,6.05-5.83,.72-.22,1.37-.29,1.94-.29,1.12,0,1.94,.36,2.48,.9,1.08-.9,2.34-1.8,3.02-1.8,.11,0,.22,.04,.29,.07,.47,.07,.72,.54,.72,1.33,0,.86-.29,2.09-.9,3.64-.4,1.08-.58,1.98-.58,2.7,0,1.87,1.19,2.56,2.95,2.56,4.57,0,13.07-4.82,14.33-6.41,.22-.43,.47-.58,.68-.58,.32,0,.54,.29,.54,.68,0,.22-.07,.43-.25,.65-.43,.61-10.08,6.26-15.69,6.26-2.3,0-3.92-.97-3.92-3.67,0-.72,.11-1.55,.36-2.56,.22-1.37,.68-2.63,.68-2.92v-.04s-.54,.5-1.37,1.3c.14,.43,.14,.86,.14,1.08v.14c-.32,.47-.76,.68-1.15,.68-.14,0-.29-.04-.43-.11l-.11-.32c-.5,.5-.72,.68-1.33,1.26Zm-.61-2.38c-1.73,0-4.75,3.92-4.75,4.75,0,.11,.07,.18,.22,.18,.68,0,2.84-1.73,5.11-4.75-.18-.14-.36-.18-.58-.18Z"/><path class="cls-2" d="M158.5,31.03c0-.11-.04-.18-.18-.18-1.94,.9-6.69,5.76-6.69,9.04,0,.36,.04,.68,.18,1.01,.25,.61,.72,1.12,1.48,1.33,.25,.11,.61,.14,.97,.14,.86,0,1.98-.22,3.06-.5,2.88-.76,6.34-2.81,11.95-7.02,.22-.14,.47-.22,.68-.22,.47,0,.86,.25,.86,.58,0,.18-.07,.36-.32,.54-5.79,4.36-10.08,6.55-13.1,7.34-1.01,.29-1.91,.4-2.66,.4-.65,0-1.22-.07-1.73-.25-1.19-.4-1.94-1.19-2.34-2.16-.25-.65-.4-1.33-.4-2.09,0-4.36,4.28-9.72,8.39-9.72h.36c.25,0,.5,.07,.76,.14,.72,.36,.97,1.04,.97,1.76,0,1.4-.86,2.99-.9,3.02-.18,.14-.54,.25-.94,.25-.83,0-1.91-.4-1.91-1.12,.25-.4,1.51-1.76,1.51-2.3Z"/><path class="cls-2" d="M173.12,30.99l.4-.25c1.22-.94,2.52-1.84,3.71-2.63,3.02-2.02,4.54-2.88,6.41-2.92,.61,.04,.86,.4,.86,.9,0,.4-.14,.83-.43,1.3-.22-.04-.43-.04-.65-.04-1.76,0-3.82,.9-5.4,1.98-2.02,1.3-5.22,3.71-7.13,5.22-.61,1.62-1.04,2.77-1.62,4.39,2.52,.22,4.82,.36,6.98,.36,5.65,0,10.58-.86,16.85-3.06,.18-.11,.32-.14,.47-.14,.32,0,.5,.32,.5,.72s-.18,.86-.58,1.08c-4.61,1.62-10.73,2.05-16.52,2.05-2.77,0-5.51-.11-7.92-.22-1.73,4.64-4.14,15.48-5.9,20.16-.14,.32-.83,.58-1.4,.58-.5,0-.94-.18-.94-.72,0-.14,.04-.36,.14-.58l.58-1.66c1.04-5,3.17-11.38,5.83-18-.54-.14-.9-.32-1.12-.54-.18-.18-.25-.4-.25-.61,0-.97,1.15-2.38,2.92-3.92,.25-.25,.54-.5,.86-.76,4.61-10.69,10.15-21.42,14.51-28.04,.79-1.3,1.51-1.98,1.98-1.98,.11,0,.22,.04,.32,.14s.18,.29,.18,.54c-.61,2.88-1.01,1.4-1.98,2.23-4.03,6.19-8.67,15.91-12.85,25.3l.9-.68c.11-.07,.22-.14,.29-.22Zm-4.68,5.83c-.65,.61-1.08,1.01-1.08,1.12l.04,.04c.07,.07,.14,.36,.32,.61,.22-.58,.47-1.19,.72-1.76Z"/><path class="cls-2" d="M200.48,29.37c0-.22-.07-.36-.29-.36-.18,0-.43,.07-.76,.25-.72,.36-1.98,1.48-3.1,2.95-.76,1.01-1.04,1.94-1.04,2.84,0,2.34,2.12,4.46,3.85,7.27,3.31-2.38,6.16-4.14,9.83-5.94,2.09-1.04,4.82-2.38,7.31-3.28,.83,.07,1.26,.76,1.26,1.4,0,.4-.18,.79-.54,1.01-2.48,.29-4.68,1.26-6.73,2.27-3.71,1.8-7.16,3.35-10.51,5.79,.65,1.19,.94,2.59,.94,4,0,5.4-4.07,11.52-8.89,11.52-.47,0-.94-.07-1.4-.18-1.44-.32-2.02-1.73-2.02-3.17,0-.54,.11-1.08,.25-1.58,.76-2.41,3.78-6.59,9.86-11.16-1.37-2.3-5.08-5.22-5.08-8.6,0-1.01,.32-2.05,1.15-3.17,1.33-1.8,3.42-2.88,4.21-3.28,.83-.36,1.48-.5,1.98-.5,.97,0,1.4,.54,1.51,1.4,.04,.18,.04,.36,.04,.58,0,2.2-1.19,4.97-1.19,5-.29,.4-.76,.54-1.22,.54-.76,0-1.55-.47-1.55-1.26,0-.11,0-.22,.04-.32,0-.04,2.09-3.02,2.09-4.03Zm-10.47,25.23c-.11,.32-.18,.72-.18,1.08,0,.58,.22,1.12,.9,1.3,.32,.11,.65,.14,1.01,.14,3.89,0,7.78-5.9,7.78-10.44,0-.94-.14-1.8-.5-2.56-5.44,4.18-8.31,8.35-9,10.47Z"/></g></g></svg>