<?xml version="1.0" encoding="UTF-8"?><svg id="Camada_2" xmlns="http://www.w3.org/2000/svg" viewBox="0 0 235.9 75.19"><defs><style>.cls-1{opacity:.1;}.cls-2{fill:#1e1e1e;}</style></defs><g id="Camada_1-2"><g class="cls-1"><path class="cls-2" d="M26.46,1.69c.65,0,1.15,.68,1.33,2.52-2.27,8.21-8.5,26.21-12.78,42.51l1.94-.32C23.9,27.79,33.62,5.9,43.12,1.73c2.7-1.19,5.11-1.73,7.23-1.73,6.88,0,10.73,5.62,10.73,12.89,0,6.33-2.92,13.93-9.29,20.23-8.24,8.17-20.95,12.2-31.6,14.22,18.9,1.76,40.57,7.13,40.57,12.81,0,.21-.04,.47-.11,.68-.25,.4-.65,.65-1.04,.65-.32,0-.65-.18-.9-.65-2.66-7.7-24.66-11.66-40.42-12.24h-.07c-2.52,6.91-5.18,13.21-6.77,17.96-1.76,5.29-2.88,8.64-3.74,8.64-.47-.07-.72-.39-.72-1.01v-.25c.18-2.27,2.27-10.83,5-21.38,.36-1.33,.68-2.74,1.08-4.14-6.66,.83-11.52,.86-12.24,.86H.11l-.11-.61v-.22c0-.65,.47-1.12,1.37-1.4,1.12-.39,3.1-.58,5.65-.58h.68c1.73,0,3.67,.11,5.8,.25C17.82,30.31,22.93,13.17,25.2,4.89c.14-.5,.22-.79,.22-.9,0-.04,0-.07-.04-.07-.25,0-2.27,4.93-2.27,4.93-.22,.25-.5,.4-.79,.4-.54,0-1.01-.43-1.01-1.12,.04-.04,3.24-6.44,5.15-6.44ZM13.39,52.91c-1.26,4.93-2.41,9.4-3.24,13,1.55-4.64,3.64-10.84,6.08-17.53l-1.62-.11c-.4,1.58-.83,3.13-1.22,4.64Zm5.94-6.91c10.69-1.87,23.07-5.65,31.42-13.93,5.98-5.9,8.85-13.25,8.85-19.19s-2.99-10.62-8.75-10.62c-1.87,0-4.07,.5-6.52,1.58-8.93,3.92-18.18,23.94-25.02,42.15Z"/><path class="cls-2" d="M61.56,34.23c0,3.02-4.86,4.97-5.87,5.36,0,.22-.04,.47-.04,.72,0,.86,.14,1.87,.58,2.52,.47,.72,1.26,1.04,2.27,1.04,4.97,0,14.9-7.49,14.94-7.52,.14-.11,.29-.14,.43-.14,.47,0,.86,.43,.86,.86,0,.18-.11,.36-.29,.5-.07,.04-9.75,7.02-15.66,7.02-1.55,0-2.84-.47-3.64-1.69-.68-1.01-.94-2.09-.94-3.13,0-2.02,1.01-3.92,2.2-5.33,.65-.76,1.37-1.33,2.02-1.69,.5-.29,.97-.43,1.44-.43,.25,0,.5,.04,.72,.14,.5,.22,.86,.68,.94,1.37,0,.14,.04,.25,.04,.39Zm-2.2,0c0-.07-.04-.11-.11-.11-.72,.11-1.4,1.44-3.06,3.6,2.3-1.98,3.17-3.17,3.17-3.49Z"/><path class="cls-2" d="M79.77,30.99c0-.22-.07-.36-.29-.36-.18,0-.43,.07-.76,.25-.72,.36-1.98,1.48-3.1,2.95-.76,1.01-1.04,1.94-1.04,2.84,0,2.34,2.12,4.46,3.85,7.27,3.31-2.38,6.16-4.14,9.83-5.94,2.09-1.04,4.82-2.38,7.31-3.28,.83,.07,1.26,.76,1.26,1.4,0,.4-.18,.79-.54,1.01-2.48,.29-4.68,1.26-6.73,2.27-3.71,1.8-7.16,3.35-10.51,5.79,.65,1.19,.94,2.59,.94,4,0,5.4-4.07,11.52-8.89,11.52-.47,0-.94-.07-1.4-.18-1.44-.32-2.02-1.73-2.02-3.17,0-.54,.11-1.08,.25-1.58,.76-2.41,3.78-6.59,9.86-11.16-1.37-2.3-5.08-5.22-5.08-8.6,0-1.01,.32-2.05,1.15-3.17,1.33-1.8,3.42-2.88,4.21-3.28,.83-.36,1.48-.5,1.98-.5,.97,0,1.4,.54,1.51,1.4,.04,.18,.04,.36,.04,.58,0,2.2-1.19,4.97-1.19,5-.29,.4-.76,.54-1.22,.54-.76,0-1.55-.47-1.55-1.26,0-.11,0-.22,.04-.32,0-.04,2.09-3.02,2.09-4.03Zm-10.48,25.23c-.11,.32-.18,.72-.18,1.08,0,.58,.22,1.12,.9,1.29,.32,.11,.65,.14,1.01,.14,3.89,0,7.77-5.9,7.77-10.44,0-.94-.14-1.8-.5-2.55-5.44,4.18-8.31,8.35-9,10.47Z"/><path class="cls-2" d="M95.76,42.87c0,.76,.25,1.22,.79,1.22,.07,0,.18-.04,.25-.04,2.16-.58,7.81-8.57,7.92-10.58,.11-.72,.47-1.01,.83-1.01,.65,0,1.4,.83,1.4,1.76,0,.04-.65,2.77-.65,5.18,0,1.51,.25,2.84,1.08,3.28,.14,.07,.36,.11,.58,.11,2.88,0,10.83-6.44,10.87-6.48,.18-.11,.36-.18,.5-.18,.43,0,.76,.4,.76,.86,0,.11-.04,.22-.07,.36,0,.04-7.95,6.37-11.95,6.37-.43,0-.83-.07-1.15-.25-1.55-.83-1.94-3.02-1.94-5.15v-.29c-1.91,3.31-5.51,8.06-8.35,8.06-.36,0-.72-.07-1.04-.25-1.22-.65-1.69-1.98-1.69-3.6,0-4.39,3.35-10.83,3.35-10.87,.22-.65,.76-.94,1.3-.94,.86,0,1.76,.68,1.76,1.62,0,.11,0,.21-.04,.36-2.77,4.18-4.5,8.39-4.5,10.44Z"/><path class="cls-2" d="M116.67,55.29c0,1.12,.14,1.98,.4,2.52,.36,.76,.9,1.12,1.55,1.12,5.29,0,18.86-21.78,18.9-21.85,.36-.54,.76-.76,1.08-.76,.4,0,.68,.29,.68,.79v.04c-.04,.07-14.25,22.28-20.77,22.28-.97,0-1.76-.5-2.34-1.66-.36-.76-.5-1.94-.5-3.38,0-9.43,6.98-31.17,11.77-37.76,1.15-1.98,2.3-3.63,3.28-4.79,1.12-1.26,2.12-1.98,2.95-1.98h.04c.61,.04,1.08,.43,1.37,1.19,.14,.39,.22,.86,.22,1.4,0,6.48-10.26,21.67-14.61,24.59-2.66,8.53-3.99,14.76-3.99,18.25Zm17.24-43.34c0-.18-.04-.32-.07-.43-.11-.21-.18-.32-.25-.32h-.04c-.36,0-1.01,.58-1.84,1.51-.94,1.08-2.02,2.66-3.13,4.57-2.23,3.82-5.11,11.77-6.8,16.52,2.23-2.05,12.13-18.03,12.13-21.85Z"/><path class="cls-2" d="M125.42,22.24c4.21,0,10.37-.25,18.39-.9,4.68-10.94,9.58-19.33,11.84-19.33h.07c.68,.25,.97,.86,.97,1.73,0,4.1-7.06,13.89-9.65,17.46,3.17-.22,24.55-2.12,28.15-2.12,.25,0,.43,0,.5,.04,.14,.21,.22,.4,.22,.58,0,1.29-2.99,2.27-2.99,2.27-.14,.07-.29,.11-.43,.11-.5,0-.9-.43-.9-.94,0-.14,.04-.29,.11-.43,0,0-16.85,.72-25.2,1.4-2.92,4.07-12.13,25.7-12.13,35.74,0,2.95,.83,4.93,2.84,5.11,.43,.04,.61,.32,.61,.61,0,.39-.32,.83-.72,.83-.07,0-.14,0-.22-.04-2.09-.9-2.95-3.6-2.95-7.38,0-8.57,4.46-22.79,9.43-34.63-5.83,.04-12.96,.29-18.21,.29-4.1,0-7.05-.18-7.27-.72-.04-.07-.07-.14-.07-.21,0-.47,.79-.65,1.26-.65h.22c.54,0,1.37,.22,1.37,1.04,1.12,.11,2.74,.14,4.75,.14Zm29.34-17.28c.22-.65,.32-1.04,.32-1.19,0-.04-.04-.07-.04-.07-.54,0-6.95,13.07-7.05,13.39,1.8-2.2,5.87-9.61,6.77-12.13Z"/><path class="cls-2" d="M153.46,38.15c-2.84,2.7-6.08,5.72-7.63,5.72-.04,0-.11-.04-.18-.04-.4-.07-.68-.29-.94-.58-.29-.36-.4-.79-.4-1.29,0-.18,0-.36,.04-.54,.07-.58,.29-1.29,.65-2.02,1.04-2.3,3.28-5,6.05-5.83,.72-.22,1.37-.29,1.94-.29,1.12,0,1.94,.36,2.48,.9,1.08-.9,2.34-1.8,3.02-1.8,.11,0,.22,.04,.29,.07,.47,.07,.72,.54,.72,1.33,0,.87-.29,2.09-.9,3.64-.4,1.08-.58,1.98-.58,2.7,0,1.87,1.19,2.55,2.95,2.55,4.57,0,13.07-4.82,14.33-6.41,.22-.43,.47-.58,.68-.58,.32,0,.54,.29,.54,.68,0,.22-.07,.43-.25,.65-.43,.61-10.08,6.26-15.69,6.26-2.3,0-3.92-.97-3.92-3.67,0-.72,.11-1.55,.36-2.56,.22-1.37,.68-2.63,.68-2.91v-.04s-.54,.5-1.37,1.3c.14,.43,.14,.86,.14,1.08v.14c-.32,.47-.76,.68-1.15,.68-.14,0-.29-.04-.43-.11l-.11-.32c-.5,.5-.72,.68-1.33,1.26Zm-.61-2.38c-1.73,0-4.75,3.92-4.75,4.75,0,.11,.07,.18,.22,.18,.68,0,2.84-1.73,5.11-4.75-.18-.14-.36-.18-.58-.18Z"/><path class="cls-2" d="M194.36,12.38c1.73-2.88,2.99-3.71,3.82-3.71,.72,0,1.08,.68,1.08,1.12,0,.07,0,.14-.04,.21v.25c0,7.38-12.89,24.95-12.89,24.95l-2.63,7.13c-2.34,6.44-3.49,14.18-3.49,17.71,0,.43,0,.76,.04,1.04,.29,2.77,1.98,3.63,2.63,3.63,.43,0,.86,.4,.86,.79,0,.21-.11,.4-.36,.54-.11,.07-.25,.11-.4,.11-.65,0-1.37-.79-1.37-.79-1.66-1.76-1.98-4.97-1.98-4.97-.04-.43-.04-.87-.04-1.3,0-7.27,3.42-18.46,4.82-21.49,0,0-5.08,6.15-7.49,7.31-.43,.22-.86,.32-1.22,.32-1.19,0-1.94-1.08-1.94-2.77,0-.65,.14-1.37,.36-2.2,1.01-3.64,3.2-7.63,6.66-8.57,.47-.14,.9-.18,1.33-.18,2.45,0,3.42,2.16,3.42,2.16,2.84-8.06,5.25-15.33,8.82-21.31Zm-11.41,21.06c-.11,0-.22,.04-.32,.04-1.58,.25-3.82,2.41-5.36,5.11-.79,1.33-1.51,3.35-1.51,4.43,0,.47,.14,.76,.47,.76,.43,0,1.22-.58,2.52-2.09,4.39-5.07,5.69-6.7,5.69-6.7,0,0-.14-1.55-1.48-1.55Zm13.68-19.26c.5-1.22,1.33-2.92,1.33-3.63,0-.22-.07-.32-.25-.32h-.04c-.86,.07-2.84,3.31-2.84,3.31-2.99,4.72-6.62,16.63-6.62,16.63,3.1-5.36,7.74-14.36,8.42-15.98Z"/><path class="cls-2" d="M196.59,33.33c-.07-.18-.07-.32-.07-.47,0-.29,.11-.5,.32-.68,.18-.14,.36-.22,.58-.22,.11,0,.22,.04,.36,.07,.61,.25,1.04,.83,1.29,1.8,.83,.9,2.02,1.65,4.43,1.84,1.26,.11,2.41,.14,3.42,.14,3.78,0,5.76-.58,5.76-.61h.18c.4,0,.61,.32,.61,.68s-.18,.72-.5,.83c0,0-1.44,.29-4.39,.29-1.3,0-2.88-.07-4.75-.21-1.98-.18-3.24-.5-4.36-1.01-.04,3.1-1.19,7.96-3.89,9.86-.5,.32-1.12,.54-1.69,.54-.29,0-.58-.04-.79-.14-1.04-.43-1.4-1.47-1.4-2.7,0-1.66,.65-3.6,1.08-4.57,.58-1.3,2.52-4.43,3.89-5.29-.04-.04-.07-.11-.07-.14Zm-2.56,6.19c-.22,.5-.86,2.48-.86,3.85,0,.61,.11,1.08,.5,1.22,.07,.04,.14,.04,.22,.04,1.69,0,3.78-7.74,3.78-9.72v-.22c-.11-.07-.18-.14-.25-.22-1.33,1.04-2.74,3.53-3.38,5.04Z"/><path class="cls-2" d="M218.84,30.99c0-.22-.07-.36-.29-.36-.18,0-.43,.07-.76,.25-.72,.36-1.98,1.48-3.1,2.95-.76,1.01-1.04,1.94-1.04,2.84,0,2.34,2.12,4.46,3.85,7.27,3.31-2.38,6.16-4.14,9.83-5.94,2.09-1.04,4.82-2.38,7.31-3.28,.83,.07,1.26,.76,1.26,1.4,0,.4-.18,.79-.54,1.01-2.48,.29-4.68,1.26-6.73,2.27-3.71,1.8-7.16,3.35-10.51,5.79,.65,1.19,.94,2.59,.94,4,0,5.4-4.07,11.52-8.89,11.52-.47,0-.94-.07-1.4-.18-1.44-.32-2.02-1.73-2.02-3.17,0-.54,.11-1.08,.25-1.58,.76-2.41,3.78-6.59,9.86-11.16-1.37-2.3-5.08-5.22-5.08-8.6,0-1.01,.32-2.05,1.15-3.17,1.33-1.8,3.42-2.88,4.21-3.28,.83-.36,1.48-.5,1.98-.5,.97,0,1.4,.54,1.51,1.4,.04,.18,.04,.36,.04,.58,0,2.2-1.19,4.97-1.19,5-.29,.4-.76,.54-1.22,.54-.76,0-1.55-.47-1.55-1.26,0-.11,0-.22,.04-.32,0-.04,2.09-3.02,2.09-4.03Zm-10.47,25.23c-.11,.32-.18,.72-.18,1.08,0,.58,.22,1.12,.9,1.29,.32,.11,.65,.14,1.01,.14,3.89,0,7.78-5.9,7.78-10.44,0-.94-.14-1.8-.5-2.55-5.44,4.18-8.31,8.35-9,10.47Z"/></g></g></svg>